<svg width="25" height="24" viewBox="0 0 25 24" fill="currentColor" xmlns="http://www.w3.org/2000/svg">
<path d="M13.7905 2.99622C13.4052 2.33207 12.446 2.33207 12.0607 2.99622L9.34661 7.67353C9.15624 8.00161 8.82719 8.22551 8.45212 8.28215L3.36581 9.05038C2.51153 9.17941 2.21187 10.258 2.87717 10.8092L6.66626 13.9484C7.01701 14.239 7.18193 14.6974 7.09672 15.1448L6.10556 20.35C5.94887 21.1728 6.81266 21.8121 7.55381 21.4219L12.3432 18.9C12.7077 18.7081 13.1434 18.7081 13.508 18.9L18.2974 21.4219C19.0385 21.8121 19.9023 21.1728 19.7456 20.35L18.7545 15.1448C18.6693 14.6974 18.8342 14.239 19.1849 13.9484L22.974 10.8092C23.6393 10.258 23.3397 9.17941 22.4854 9.05038L17.3991 8.28215C17.024 8.22551 16.695 8.00161 16.5046 7.67353L13.7905 2.99622Z" fill="currentColor"/>
</svg>
