<svg width="25" height="24" viewBox="0 0 25 24" fill="none" xmlns="http://www.w3.org/2000/svg">
<path d="M12.9255 3.75C10.8545 3.75 9.17554 5.42893 9.17554 7.5C9.17554 9.57107 10.8545 11.25 12.9255 11.25C14.9966 11.25 16.6755 9.57107 16.6755 7.5C16.6755 5.42893 14.9966 3.75 12.9255 3.75Z" fill="currentColor"/>
<path d="M8.92554 13.25C6.85447 13.25 5.17554 14.9289 5.17554 17V18.1883C5.17554 18.9415 5.72142 19.5837 6.46481 19.7051C10.7436 20.4037 15.1074 20.4037 19.3863 19.7051C20.1297 19.5837 20.6755 18.9415 20.6755 18.1883V17C20.6755 14.9289 18.9966 13.25 16.9255 13.25H16.5847C16.4002 13.25 16.2168 13.2792 16.0415 13.3364L15.176 13.6191C13.7137 14.0965 12.1374 14.0965 10.6751 13.6191L9.80961 13.3364C9.63423 13.2792 9.4509 13.25 9.26641 13.25H8.92554Z" fill="currentColor"/>
</svg>
