<svg width="24" height="24" viewBox="0 0 24 24" fill="currentColor" xmlns="http://www.w3.org/2000/svg">
<path d="M13.0435 5.04348C13.0435 4.46718 12.5763 4 12 4C11.4237 4 10.9565 4.46718 10.9565 5.04348V10.9565H5.04348C4.46718 10.9565 4 11.4237 4 12C4 12.5763 4.46718 13.0435 5.04348 13.0435H10.9565V18.9565C10.9565 19.5328 11.4237 20 12 20C12.5763 20 13.0435 19.5328 13.0435 18.9565V13.0435H18.9565C19.5328 13.0435 20 12.5763 20 12C20 11.4237 19.5328 10.9565 18.9565 10.9565H13.0435V5.04348Z" fill="currentColor"/>
</svg>
