<svg width="25" height="24" viewBox="0 0 25 24" fill="currentColor" xmlns="http://www.w3.org/2000/svg">
<path fillRule="evenodd" clipRule="evenodd" d="M7.17554 5.5C7.17554 3.70507 8.63061 2.25 10.4255 2.25C11.4308 2.25 12.3294 2.70637 12.9255 3.42322C13.5217 2.70637 14.4203 2.25 15.4255 2.25C17.2205 2.25 18.6755 3.70507 18.6755 5.5C18.6755 6.25426 18.4186 6.94852 17.9875 7.5H18.9255C20.3062 7.5 21.4255 8.61929 21.4255 10V11.25C21.4255 11.6642 21.0898 12 20.6755 12H13.9755C13.8099 12 13.6755 11.8657 13.6755 11.7V8.23909C13.3926 8.05794 13.1396 7.83415 12.9255 7.57678C12.7115 7.83415 12.4585 8.05794 12.1755 8.23909V11.7C12.1755 11.8657 12.0412 12 11.8755 12H5.17554C4.76132 12 4.42554 11.6642 4.42554 11.25V10C4.42554 8.61929 5.54483 7.5 6.92554 7.5H7.86362C7.43248 6.94852 7.17554 6.25426 7.17554 5.5ZM12.1755 5.5C12.1755 4.5335 11.392 3.75 10.4255 3.75C9.45904 3.75 8.67554 4.5335 8.67554 5.5C8.67554 6.4665 9.45904 7.25 10.4255 7.25C11.392 7.25 12.1755 6.4665 12.1755 5.5ZM13.6755 5.5C13.6755 6.4665 14.459 7.25 15.4255 7.25C16.392 7.25 17.1755 6.4665 17.1755 5.5C17.1755 4.5335 16.392 3.75 15.4255 3.75C14.459 3.75 13.6755 4.5335 13.6755 5.5Z" fill="currentColor"/>
<path d="M12.1755 13.65C12.1755 13.4843 12.0412 13.35 11.8755 13.35H6.57455C6.1689 13.35 5.82226 13.6423 5.75375 14.0421C5.5317 15.3379 5.5317 16.6621 5.75375 17.9579L5.97806 19.2669C6.1291 20.1483 6.84494 20.8235 7.73366 20.9229L8.79878 21.0419C9.81969 21.156 10.8441 21.2276 11.8695 21.2568C12.0375 21.2616 12.1755 21.1262 12.1755 20.9581L12.1755 13.65Z" fill="currentColor"/>
<path d="M13.9816 21.2568C13.8136 21.2616 13.6755 21.1262 13.6755 20.9581L13.6755 13.65C13.6755 13.4843 13.8099 13.35 13.9755 13.35H19.2765C19.6822 13.35 20.0288 13.6423 20.0973 14.0421C20.3194 15.3379 20.3194 16.6621 20.0973 17.9579L19.873 19.2669C19.722 20.1483 19.0061 20.8235 18.1174 20.9229L17.0523 21.0419C16.0314 21.156 15.0069 21.2276 13.9816 21.2568Z" fill="currentColor"/>
</svg>
