<svg width="25" height="24" viewBox="0 0 25 24" fill="none" xmlns="http://www.w3.org/2000/svg">
<path fill-rule="evenodd" clipRule="evenodd" d="M15.3107 15.4457C12.6604 17.5684 8.78098 17.4013 6.3242 14.9445C3.68816 12.3085 3.68816 8.03464 6.3242 5.3986C8.96024 2.76256 13.2341 2.76256 15.8701 5.3986C18.3269 7.85538 18.494 11.7348 16.3713 14.3851L21.527 19.5407C21.8199 19.8336 21.8199 20.3085 21.527 20.6014C21.2341 20.8943 20.7592 20.8943 20.4663 20.6014L15.3107 15.4457ZM7.38486 13.8839C5.3346 11.8336 5.3346 8.50951 7.38486 6.45926C9.43511 4.40901 12.7592 4.40901 14.8095 6.45926C16.8582 8.50801 16.8597 11.8287 14.814 13.8794C14.8125 13.8809 14.811 13.8823 14.8095 13.8839C14.808 13.8854 14.8065 13.8869 14.805 13.8884C12.7544 15.9341 9.43361 15.9326 7.38486 13.8839Z" fill="currentColor"/>
</svg>
