<svg width="25" height="24" viewBox="0 0 25 24" fill="currentColor" xmlns="http://www.w3.org/2000/svg">
<path d="M14.7215 4.13612C13.7391 3.1215 12.1119 3.1215 11.1295 4.13611L6.33099 9.09185C6.05541 9.37646 5.87022 9.73627 5.79877 10.1259C5.21601 13.3039 5.17299 16.5574 5.67153 19.7496L5.84803 20.8798C5.90378 21.2368 6.21124 21.5 6.57255 21.5H9.92551C10.2017 21.5 10.4255 21.2761 10.4255 21V14H15.4255V21C15.4255 21.2761 15.6494 21.5 15.9255 21.5H19.2784C19.6397 21.5 19.9472 21.2368 20.0029 20.8798L20.1794 19.7496C20.678 16.5574 20.635 13.3039 20.0522 10.1259C19.9807 9.73627 19.7956 9.37646 19.52 9.09185L14.7215 4.13612Z" fill="currentColor"/>
</svg>
