<svg width="24" height="24" viewBox="0 0 24 24" fill="currentColor" xmlns="http://www.w3.org/2000/svg">
<path d="M19.5899 6.39005C20.1367 5.84329 20.1367 4.95682 19.5899 4.41007C19.0432 3.86331 18.1567 3.86331 17.6099 4.41007L12 10.02L6.39006 4.41007C5.84331 3.86331 4.95684 3.86331 4.41008 4.41007C3.86333 4.95683 3.86333 5.84329 4.41008 6.39005L10.02 12L4.41007 17.6099C3.86331 18.1567 3.86331 19.0432 4.41007 19.5899C4.95682 20.1367 5.84329 20.1367 6.39005 19.5899L12 13.98L17.61 19.5899C18.1567 20.1367 19.0432 20.1367 19.5899 19.5899C20.1367 19.0432 20.1367 18.1567 19.5899 17.61L13.98 12L19.5899 6.39005Z" fill="currentColor"/>
</svg>
