<svg width="696" height="832" viewBox="0 0 696 832" fill="none" xmlns="http://www.w3.org/2000/svg">
<g clip-path="url(#clip0_2274_1586)">
<path fillRule="evenodd" clipRule="evenodd" d="M185.474 0.770603C189.951 0.245661 194.625 0.344545 199.232 0.442008C201.071 0.480919 202.9 0.519603 204.701 0.518271C211.647 8.16071 217.955 17.3398 223.88 26.0569C251.269 66.3504 271.361 113.468 278.402 164.334C292.656 267.306 250.964 363.097 196.547 440.998C190.599 449.513 184.045 457.615 177.49 465.719L177.489 465.72L177.489 465.72L177.489 465.72C168.762 476.509 160.032 487.301 152.725 499.074C146.281 509.457 141.51 521.644 143.512 534.704C145.148 545.377 151.469 555.066 159.089 561.119C171.557 571.023 187.346 572.223 201.83 569.077C219.548 565.229 236.773 555.668 252.93 546.624C319.846 509.171 384.922 452.565 426.955 380.842C488.815 275.289 468.998 185.264 446.641 83.6949L446.64 83.6935C440.75 56.9351 434.684 29.3754 429.888 0.519656L468.811 0.515933C472.083 12.882 475.585 25.2009 479.089 37.5225L479.089 37.5233C494.022 90.0467 508.97 142.62 506.128 199.105C506.082 203.056 505.984 207.005 505.836 210.952C505.687 214.899 505.488 218.842 505.238 222.783C504.988 226.723 504.686 230.658 504.334 234.587C503.982 238.517 503.579 242.439 503.126 246.355C502.672 250.271 502.168 254.178 501.613 258.077C501.059 261.975 500.455 265.863 499.799 269.741C499.144 273.618 498.44 277.483 497.685 281.336C496.93 285.189 496.125 289.028 495.271 292.854C494.417 296.679 493.513 300.489 492.561 304.283C491.608 308.077 490.607 311.854 489.556 315.613C488.506 319.372 487.407 323.113 486.26 326.835C485.113 330.556 483.919 334.257 482.676 337.937C481.433 341.617 480.143 345.275 478.806 348.911C477.469 352.546 476.085 356.158 474.655 359.746C473.224 363.334 471.747 366.896 470.225 370.433C468.702 373.969 467.134 377.479 465.52 380.962C463.907 384.444 462.249 387.898 460.546 391.323C458.844 394.748 457.097 398.143 455.307 401.508C453.516 404.873 451.682 408.207 449.806 411.508C447.929 414.81 446.01 418.078 444.049 421.313C442.088 424.548 440.086 427.749 438.042 430.915C435.997 434.081 433.913 437.211 431.789 440.304C429.664 443.399 427.5 446.455 425.296 449.474C423.092 452.493 420.849 455.473 418.569 458.415C416.288 461.357 413.969 464.259 411.613 467.12C409.258 469.981 406.865 472.801 404.437 475.58C402.008 478.359 399.544 481.096 397.044 483.789C394.545 486.482 392.011 489.132 389.443 491.739C386.875 494.344 384.274 496.905 381.64 499.421C379.005 501.937 376.339 504.408 373.641 506.832C370.943 509.256 368.214 511.632 365.455 513.962C362.695 516.292 359.906 518.573 357.088 520.807C347.444 528.524 337.565 535.924 327.683 543.326L327.682 543.326C294.625 568.087 261.541 592.868 237.163 629.604C225.734 646.826 216.502 666.299 211.758 687.395C209.951 695.43 209.204 705.299 208.427 715.563C206.856 736.321 205.163 758.698 194.329 770.799C188.955 776.801 181.798 779.549 174.395 779.246C158.156 778.581 141.968 764.659 131.23 751.328C108.21 722.75 98.641 682.956 93.2968 645.331C88.3422 610.452 84.7355 571.692 92.0522 537.081C102.382 488.222 132.476 450.733 161.944 414.024C172.931 400.336 183.831 386.757 193.587 372.738C195.83 369.516 198.024 366.249 200.169 362.94C202.315 359.63 204.41 356.278 206.456 352.884C208.501 349.491 210.495 346.057 212.438 342.584C214.38 339.111 216.271 335.6 218.109 332.051C219.947 328.503 221.732 324.919 223.463 321.3C225.194 317.68 226.87 314.026 228.493 310.34C230.114 306.653 231.681 302.935 233.192 299.186C234.703 295.437 236.158 291.659 237.556 287.851C248.388 257.951 255.123 226.563 256.129 194.1C258.441 119.587 228.453 54.0425 185.474 0.770603ZM566.018 0.515192L576.959 0.505856C578.001 4.78581 579.012 9.07567 579.991 13.3754C580.971 17.6751 581.918 21.9841 582.834 26.3024C583.751 30.6207 584.635 34.9476 585.488 39.2833C586.341 43.6188 587.162 47.9625 587.951 52.3141C588.741 56.6658 589.498 61.0249 590.223 65.3914C590.949 69.7579 591.642 74.1311 592.303 78.5112C592.965 82.8915 593.595 87.2778 594.192 91.6702C594.789 96.0625 595.354 100.46 595.886 104.864C596.42 109.267 596.92 113.675 597.388 118.089C597.857 122.502 598.293 126.919 598.696 131.341C599.1 135.763 599.471 140.188 599.81 144.618C600.149 149.047 600.455 153.478 600.729 157.913C601.004 162.349 601.245 166.786 601.454 171.225C601.663 175.665 601.839 180.107 601.984 184.55C602.127 188.993 602.239 193.437 602.318 197.883C602.397 202.328 602.443 206.774 602.457 211.22C602.471 215.667 602.452 220.113 602.401 224.559C602.35 229.005 602.266 233.45 602.149 237.894C602.033 242.338 601.885 246.781 601.703 251.222C601.522 255.664 601.308 260.103 601.062 264.54C600.815 268.977 600.537 273.412 600.225 277.844C599.914 282.276 599.57 286.704 599.194 291.129C598.818 295.554 598.41 299.975 597.97 304.392C597.528 308.809 597.055 313.222 596.55 317.63C596.045 322.037 595.507 326.439 594.937 330.837C594.367 335.234 593.765 339.625 593.131 344.01C592.497 348.396 591.831 352.775 591.133 357.148C590.435 361.52 589.704 365.885 588.942 370.243C588.18 374.601 587.387 378.952 586.561 383.294C585.735 387.637 584.878 391.971 583.988 396.297C583.099 400.622 582.178 404.939 581.225 409.248C580.273 413.555 579.289 417.853 578.274 422.142C574.639 437.324 570.512 452.325 565.893 467.145C561.274 481.965 556.176 496.561 550.6 510.933C546.664 520.937 542.345 530.741 538.026 540.544L538.026 540.545C534.909 547.619 531.793 554.693 528.821 561.841C507.397 613.373 482.983 681.494 489.414 739.191C491.863 761.158 499.308 782.95 509.036 801.924C530.859 844.492 565.513 876.123 602.263 900.331C649.226 931.262 701.494 951.912 753.664 967.472C766.903 971.363 780.197 974.994 793.545 978.364C795.438 978.841 798.991 979.574 803.213 980.444L803.217 980.445L803.219 980.446L803.22 980.446C813.987 982.666 829.096 985.782 832.102 987.838C812.889 986.191 793.017 981.685 773.784 977.323C769.721 976.402 765.687 975.487 761.694 974.607C681.189 956.889 543.711 919.932 487.977 845.485C466.598 816.926 458.702 782.804 461.108 745.481C465.395 678.985 496.126 608.608 522.188 550.156C524.776 544.352 527.399 538.573 530.023 532.795C537.577 516.155 545.126 499.526 551.793 482.359C554.06 476.504 556.249 470.611 558.359 464.678C560.468 458.746 562.499 452.777 564.449 446.772C566.4 440.767 568.27 434.729 570.059 428.657C571.848 422.586 573.556 416.484 575.183 410.351C576.81 404.219 578.354 398.058 579.817 391.871C581.279 385.683 582.658 379.471 583.955 373.234C585.251 366.997 586.464 360.739 587.593 354.459C588.723 348.179 589.768 341.88 590.729 335.562C590.991 333.91 591.286 332.087 591.603 330.13L591.605 330.12C594.362 313.075 598.763 285.873 597.361 272.244C590.622 344.875 571.544 413.448 543.963 478.949C528.029 516.79 509.587 553.143 491.176 589.434L490.014 591.725C488.867 593.987 487.72 596.248 486.574 598.51C484.365 602.869 482.092 607.314 479.778 611.838C441.27 687.131 391.717 784.021 447.007 863.193C487.747 921.531 579.058 966.372 639.814 989.686C651.824 994.265 663.928 998.492 676.126 1002.37C678.194 1003.03 680.392 1003.64 682.631 1004.26C688.078 1005.77 693.762 1007.35 698.378 1009.97L522.907 1009.99C465.911 963.784 416.156 901.715 403.705 819.696C392.07 743.057 421.868 677.42 458.81 616.734C466.548 604.023 474.562 591.526 482.575 579.03L482.576 579.029L482.577 579.027L482.578 579.025L482.579 579.024L482.58 579.022C499.375 552.831 516.17 526.64 530.436 498.465C590.959 378.931 608.097 232.727 587.842 97.2254C586.609 89.0083 585.228 80.8246 583.699 72.6741C582.17 64.5237 580.496 56.4136 578.675 48.3439C576.854 40.2742 574.888 32.2519 572.778 24.277C570.667 16.3021 568.414 8.38146 566.018 0.515192ZM78.0285 138.663C41.2267 68.4304 -71.4074 33.2156 -136.745 14.6637L-136.742 30.7105C-82.6105 49.4919 8.61507 90.5595 36.1955 149.753C54.5254 189.091 46.4162 234.074 35.7985 274.671C29.2923 299.545 21.4714 324.002 13.6609 348.427C10.4315 358.525 7.20383 368.619 4.07161 378.733C-41.9703 527.418 -65.3378 637.127 2.38167 783.689C35.2817 854.893 83.1281 916.915 135.759 969.432C146.331 979.979 157.247 989.889 168.19 999.823C171.911 1003.2 175.636 1006.58 179.35 1009.99H188.36C130.346 954.431 71.607 885.597 32.6394 810.496C-0.357346 746.906 -19.0107 676.196 -19.4999 601.799C-19.6479 579.305 -18.5549 557.599 -14.5357 535.517C-4.9211 482.69 13.8618 431.554 32.1886 381.661C34.74 374.715 37.2825 367.793 39.7902 360.894C41.8553 355.213 43.9428 349.522 46.0348 343.819C60.5222 304.326 75.2242 264.248 84.1579 222.723C90.566 192.942 92.2358 165.776 78.0285 138.663ZM372.629 559.608L372.628 559.609C362.874 567.99 354.397 575.274 348.814 580.789C339.95 589.545 332.406 599.271 325.537 610.16C312.833 630.302 303.68 653.023 295.635 676.049C292.047 686.317 288.268 698.506 284.204 711.612L284.204 711.614C270.002 757.42 252.329 814.419 227.236 839.68C219.618 847.348 210.472 851.902 200.26 851.059C176.345 849.086 155.212 822.947 140.64 803.338C136.442 797.767 132.248 791.807 129.144 785.335C129.467 785.709 129.79 786.084 130.113 786.458L130.113 786.458L130.114 786.459L130.114 786.459L130.115 786.46L130.115 786.46L130.115 786.46L130.116 786.461C136.878 794.299 143.661 802.16 151.395 808.73C162.9 818.502 176.894 826.209 191.528 823.416C201.206 821.569 209.288 815.156 215.814 806.927C226.796 793.079 233.996 774.664 240.68 757.57C240.934 756.919 241.188 756.27 241.441 755.623C247.03 741.348 252.111 726.695 257.2 712.02C270.461 673.777 283.777 635.378 306.27 603.09C327.197 573.05 355.996 550.884 384.147 530.781C388 528.029 391.679 525.458 395.208 522.991L395.217 522.985C418.216 506.91 434.895 495.253 452.621 466.669C448.974 494.009 404.138 532.534 372.629 559.608ZM537.081 754.579C538.892 756.267 541.436 764.246 543.682 771.288C545.045 775.563 546.298 779.492 547.211 781.462C563.353 816.297 587.138 844.599 615.829 865.867C691.799 922.168 790.746 922.005 880.695 921.857C893.054 921.837 905.243 921.817 917.179 921.944C919.398 921.967 921.618 921.99 923.838 922.013C985.809 922.659 1048.34 923.311 1109.88 931.959C1149.56 937.529 1192.79 946.066 1228.19 968.366C1235.29 972.828 1256.38 988.035 1258.58 996.658L1256.3 995.807C1253.19 988.078 1223.65 973.662 1216.76 970.489C1133.99 932.414 1015.15 927.583 926.071 928.529C908.348 928.72 890.615 929.582 872.886 930.444L872.882 930.445H872.881H872.881H872.88H872.88H872.879H872.878C852.419 931.439 831.965 932.434 811.537 932.397C737.582 932.26 655.419 918.29 595.465 864.457C565.067 837.165 541.983 799.466 537.081 754.579ZM605.633 0.509732L586.767 0.51109C588.598 6.39288 590.36 12.3023 592.053 18.2392C593.745 24.1763 595.367 30.1387 596.92 36.1266C598.473 42.1144 599.955 48.1254 601.367 54.1598C602.779 60.1941 604.119 66.2494 605.389 72.3257C606.659 78.402 607.856 84.4971 608.981 90.6111C610.111 96.7251 611.167 102.855 612.148 109.002C613.135 115.149 614.047 121.311 614.884 127.486C615.722 133.661 616.488 139.849 617.182 146.049C617.876 152.248 618.498 158.457 619.048 164.676C619.593 170.895 620.066 177.122 620.468 183.355C620.874 189.59 621.204 195.829 621.457 202.073C621.714 208.317 621.898 214.564 622.007 220.814C622.116 227.064 622.153 233.314 622.118 239.565C622.079 245.817 621.967 252.066 621.784 258.314C621.601 264.561 621.345 270.805 621.018 277.044C620.686 283.284 620.282 289.517 619.806 295.744C616.481 335.404 606.44 383.509 595.683 435.044C562.095 595.961 521.527 790.317 656.624 865.446C746.417 915.383 885.48 901.701 999.983 890.435L999.985 890.435C1026.95 887.782 1052.56 885.262 1075.84 883.74C1126.4 880.43 1177.76 879.734 1228.02 887.892C1295.41 898.836 1364.42 925.339 1410.75 985.843C1410.98 986.15 1411.24 986.53 1411.52 986.937C1412.52 988.411 1413.77 990.245 1414.97 990.279C1416.65 982.957 1416.08 964.083 1415.68 950.653V950.651V950.65C1415.55 946.596 1415.45 943.038 1415.42 940.444C1404.8 930.343 1394.33 920.405 1382.7 911.868C1339.24 880 1286.94 864.664 1236.26 857.603C1177.57 849.429 1117.94 852.547 1059.16 857.588C1045.34 858.772 1030.22 860.312 1014.14 861.949L1014.13 861.95C892.527 874.333 716.101 892.3 633.1 804.521C600.891 770.454 586.219 723.489 582.076 674.169C577.277 617.044 585.276 558.117 595.261 502.28C600.171 474.825 605.947 447.526 611.724 420.224L611.725 420.223L611.725 420.222L611.725 420.222L611.725 420.221C619.705 382.51 627.685 344.796 633.382 306.662C648.46 205.759 639.576 95.4674 605.633 0.509732ZM-73.0214 360.096C-77.201 292.207 -90.2166 225.009 -136.63 178.478C-136.817 210.924 -136.849 243.369 -136.724 275.814L-136.649 276.47C-118.332 318.314 -116.022 377.298 -113.961 429.921C-113.311 446.504 -112.686 462.456 -111.593 477.041C-97.5088 664.935 -50.9829 902.549 98.0767 1009.99L120.462 1009.97C110.244 1001.35 100.333 992.276 90.731 982.757C-27.4329 864.328 -62.4267 689.783 -70.0283 516.08C-71.0656 492.378 -71.1151 468.655 -71.1646 444.939C-71.2237 416.632 -71.2828 388.336 -73.0214 360.096ZM-136.54 383.863C-133.916 409.272 -132.41 434.803 -130.903 460.342C-129.356 486.563 -127.809 512.794 -125.05 538.912C-124.424 545.261 -123.742 551.603 -123.005 557.936C-122.268 564.27 -121.475 570.594 -120.628 576.908C-119.78 583.223 -118.877 589.527 -117.92 595.821C-116.962 602.114 -115.949 608.396 -114.881 614.666C-113.814 620.936 -112.691 627.193 -111.514 633.437C-110.337 639.68 -109.106 645.91 -107.82 652.125C-106.534 658.339 -105.194 664.539 -103.799 670.723C-102.405 676.906 -100.956 683.073 -99.4543 689.223C-97.9521 695.372 -96.3963 701.504 -94.7869 707.617C-93.1775 713.731 -91.5149 719.825 -89.7989 725.899C-88.083 731.974 -86.3141 738.028 -84.4923 744.061C-82.6705 750.094 -80.7962 756.105 -78.8693 762.095C-76.9424 768.085 -74.9634 774.051 -72.9322 779.993C-70.901 785.937 -68.818 791.855 -66.6833 797.75C-64.5486 803.644 -62.3627 809.513 -60.1256 815.357C-57.8882 821.2 -55.5999 827.017 -53.2609 832.807C-39.8789 865.532 -25.2077 897.047 -5.9863 925.735C1.11153 936.303 8.57837 946.513 16.4142 956.365C24.2496 966.211 32.4265 975.665 40.9449 984.726C43.8695 987.805 47.3278 991 50.8413 994.247C56.4801 999.457 62.2608 1004.8 66.2048 1010L64.0911 1009.92C30.4327 979.396 0.271637 944.338 -24.3207 903.744C-38.6224 880.138 -50.0327 853.608 -60.8282 827.681C-102.371 727.913 -123.523 633.435 -136.651 524.202L-136.662 522.482C-136.99 509.879 -136.906 497.212 -136.823 484.564C-136.784 478.748 -136.746 472.937 -136.747 467.137C-136.873 439.378 -136.804 411.62 -136.54 383.863ZM133.3 0.519485L25.3095 0.529689C27.1469 1.80548 28.9781 3.09319 30.8031 4.39283C76.6317 37.0537 123.821 80.4519 136.705 143.964C154.976 234.024 109.214 317.13 68.4423 391.172C63.0315 400.999 57.7086 410.665 52.6349 420.167C10.0093 499.994 -13.589 575.134 6.00708 670.161C37.2046 821.445 162.829 932.862 271.244 1009.99H440.375C438.773 1008.3 437.19 1006.58 435.626 1004.83C434.062 1003.09 432.517 1001.33 430.99 999.538C429.464 997.755 427.958 995.947 426.471 994.113C424.984 992.285 423.517 990.434 422.069 988.56C420.622 986.686 419.196 984.792 417.79 982.877C416.384 980.963 414.998 979.029 413.634 977.075C412.27 975.126 410.927 973.154 409.605 971.16C408.283 969.166 406.983 967.154 405.704 965.125C404.426 963.096 403.17 961.047 401.936 958.978C400.702 956.909 399.491 954.826 398.302 952.729C397.112 950.625 395.946 948.508 394.803 946.376C393.66 944.238 392.54 942.086 391.443 939.919C390.346 937.753 389.273 935.569 388.224 933.369C387.174 931.168 386.148 928.956 385.146 926.732C384.144 924.503 383.167 922.259 382.214 920.001C381.261 917.743 380.332 915.473 379.427 913.192C378.431 910.636 377.468 908.066 376.538 905.481C375.608 902.89 374.712 900.286 373.849 897.666C372.986 895.053 372.156 892.422 371.361 889.775C370.566 887.127 369.804 884.465 369.077 881.788C368.35 879.118 367.657 876.435 366.999 873.742C366.341 871.042 365.718 868.334 365.13 865.618C364.541 862.895 363.988 860.167 363.47 857.432C362.951 854.694 362.468 851.948 362.02 849.195C361.573 846.441 361.16 843.68 360.784 840.912C360.407 838.144 360.066 835.37 359.76 832.591C359.455 829.811 359.185 827.026 358.951 824.237C358.717 821.448 358.519 818.655 358.357 815.86C358.194 813.064 358.068 810.266 357.978 807.466C357.888 804.666 357.833 801.865 357.815 799.063C357.797 796.261 357.815 793.459 357.868 790.658C357.922 787.856 358.012 785.056 358.138 782.258C358.28 778.714 358.481 775.175 358.741 771.64C359 768.105 359.318 764.577 359.694 761.056C360.071 757.535 360.506 754.024 360.999 750.523C361.492 747.021 362.043 743.532 362.651 740.055C363.259 736.578 363.925 733.115 364.648 729.667C365.371 726.22 366.152 722.79 366.989 719.377C367.825 715.963 368.718 712.57 369.668 709.197C370.617 705.823 371.622 702.472 372.682 699.143C389.333 647.343 419.968 608.672 450.91 569.612C466.023 550.534 481.209 531.364 494.875 510.526C497.862 505.924 500.777 501.261 503.621 496.539C506.464 491.817 509.234 487.037 511.929 482.2C514.625 477.364 517.246 472.473 519.79 467.528C522.336 462.584 524.803 457.588 527.194 452.542C529.585 447.495 531.898 442.401 534.131 437.259C536.365 432.117 538.519 426.931 540.592 421.701C542.666 416.47 544.659 411.198 546.57 405.885C548.481 400.573 550.309 395.222 552.055 389.834C591.208 269.977 592.813 118.303 546.777 0.520207L519.156 0.515075C522.802 12.4541 526.159 24.5009 529.226 36.6555C532.293 48.8102 535.066 61.0541 537.545 73.3869C540.024 85.7197 542.204 98.1227 544.087 110.596C545.969 123.069 547.551 135.592 548.832 148.167C558.328 246.167 545.357 347.028 497.843 430.629C484.855 453.484 469.245 474.233 453.018 494.065C445.528 503.219 438.273 511.892 431.244 520.294C393.44 565.486 362.171 602.866 336.014 665.301C333.15 672.099 330.439 678.978 327.883 685.938C325.326 692.899 322.927 699.93 320.684 707.034C318.441 714.137 316.359 721.303 314.437 728.531C312.515 735.759 310.755 743.039 309.158 750.372C306.701 761.583 304.927 774.769 303.077 788.518C298.815 820.192 294.151 854.855 279.81 875.246C279.345 875.911 278.865 876.561 278.372 877.198C277.879 877.828 277.372 878.447 276.851 879.055C276.331 879.662 275.798 880.252 275.251 880.825C274.706 881.404 274.148 881.963 273.577 882.502C273.007 883.046 272.425 883.574 271.832 884.084C271.239 884.588 270.635 885.078 270.02 885.554C269.406 886.029 268.781 886.485 268.147 886.92C267.512 887.356 266.869 887.774 266.217 888.176C265.564 888.577 264.903 888.958 264.234 889.319C263.565 889.68 262.888 890.021 262.205 890.342C261.521 890.663 260.83 890.964 260.133 891.245C259.436 891.526 258.733 891.786 258.025 892.027C257.316 892.273 256.603 892.494 255.885 892.689C255.167 892.89 254.445 893.07 253.719 893.231C252.993 893.385 252.264 893.52 251.533 893.635C250.801 893.749 250.067 893.844 249.331 893.918C220.545 896.884 191.251 869.779 170.723 849.599C167.977 846.874 165.269 844.1 162.6 841.275C159.93 838.451 157.3 835.578 154.709 832.656C152.119 829.735 149.569 826.767 147.061 823.751C144.552 820.736 142.086 817.675 139.662 814.569C137.237 811.462 134.857 808.312 132.52 805.118C130.182 801.924 127.889 798.688 125.642 795.409C123.393 792.13 121.191 788.811 119.034 785.451C116.878 782.092 114.768 778.693 112.705 775.256C110.642 771.818 108.627 768.343 106.66 764.831C104.693 761.32 102.775 757.773 100.906 754.189C99.0367 750.607 97.2174 746.992 95.4479 743.342C93.6784 739.692 91.9594 736.011 90.291 732.298C88.6232 728.585 87.0068 724.842 85.442 721.07C83.8772 717.297 82.3647 713.496 80.9045 709.668C79.4448 705.84 78.0379 701.986 76.6837 698.105C75.3301 694.225 74.0302 690.321 72.7841 686.393C58.6452 641.71 49.3546 589.882 55.7858 542.446C63.772 483.529 96.1303 430.925 129.054 377.402C157.879 330.542 187.137 282.978 200.852 229.856C207.356 204.665 210.624 178.611 208.743 152.321C204.342 90.7719 172.966 39.4551 133.3 0.519485Z" fill="white" fill-opacity="0.12"/>
</g>
<defs>
<clipPath id="clip0_2274_1586">
<rect width="696" height="832" fill="white"/>
</clipPath>
</defs>
</svg>
