<svg width="214" height="76" viewBox="0 0 214 76" fill="none" xmlns="http://www.w3.org/2000/svg">
<path fill-rule="evenodd" clipRule="evenodd" d="M20.8134 5.87851L19.372 7.35732H35.4893L36.958 5.87851H20.8134ZM203.999 53.1528L189.114 10.98H185.327L170.942 50.5681C170.378 52.1204 168.915 53.1528 167.277 53.1528H166.383L164.916 54.6316H175.006L176.471 53.1528H171.635L175.985 41.0412L191.278 41.0614L195.464 53.1528H192.503L191.041 54.6316H206.707L208.176 53.1528H203.999ZM176.502 39.5128L183.805 19.535L190.734 39.5128H176.502ZM71.344 10.9818H54.6206L53.1482 12.4643L58.4424 12.512V49.3758C58.4424 51.4609 56.7681 53.1528 54.7006 53.1528C54.6297 53.1528 54.5605 53.1822 54.5114 53.2336L53.1482 54.6334H69.2656L70.7343 53.1546H65.562V41.9616C65.562 41.9616 68.4885 43.1887 72.3631 43.1758C81.2681 43.1464 90.5571 36.0059 90.5571 27.0908C90.5571 13.4985 76.5708 10.9818 71.344 10.9818ZM81.1735 36.0775C81.1735 36.0775 78.5 41.9542 71.6989 41.9542C64.9457 41.9542 65.4977 35.5553 65.5055 35.4649L65.5056 35.464V12.6112H69.322C80.1325 12.6112 82.866 23.0677 82.866 28.2536C82.8678 33.4377 81.1735 36.0775 81.1735 36.0775ZM83.7068 68.2679L84.5767 69.936H85.2373L81.8868 63.51H81.0424L77.6755 69.936H78.3343L79.2225 68.2679H83.7068ZM81.4282 64.0703H81.5083L83.4156 67.7095H79.5118L81.4282 64.0703ZM81.148 63.0232H81.4373L82.3528 61.7905H81.6484L81.148 63.0232ZM74.194 64.0703V69.936H74.7691V63.51H73.89L70.636 67.7958L67.391 63.51H66.5029V69.936H67.0744V64.0703H67.0998L70.6342 68.65L74.1594 64.0703H74.194ZM94.186 69.936L92.1895 67.2998H88.7171V69.936H88.1456V63.51H92.9466C94.1241 63.51 94.863 64.2559 94.863 65.426C94.863 66.5264 94.1769 67.2098 92.9466 67.298L94.8812 69.9341H94.186V69.936ZM94.2297 65.4003C94.2297 64.5038 93.7201 64.0685 92.6918 64.0685H88.7189V66.7395H92.9048C93.7456 66.7414 94.2297 66.2527 94.2297 65.4003ZM106.196 64.0703V69.936H106.771V63.51H105.892L102.638 67.7958L99.3929 63.51H98.5047V69.936H99.0762V64.0703H99.1017L102.636 68.65L106.161 64.0703H106.196ZM116.868 69.2434C116.2 69.7945 115.268 70.1215 114.213 70.1215C113.157 70.1215 112.216 69.7927 111.548 69.2434C110.766 68.5949 110.371 67.7517 110.371 66.7138C110.371 65.6924 110.775 64.8419 111.557 64.1934C112.234 63.6349 113.175 63.3061 114.213 63.3061C115.241 63.3061 116.182 63.6349 116.859 64.1934C117.641 64.8419 118.045 65.6924 118.045 66.7138C118.047 67.7536 117.65 68.5949 116.868 69.2434ZM116.402 64.5663C115.84 64.1217 115.057 63.848 114.213 63.848C113.368 63.848 112.576 64.1236 112.023 64.5663C111.337 65.1174 110.995 65.8357 110.995 66.7138C110.995 68.4259 112.269 69.5722 114.213 69.5722C116.156 69.5722 117.439 68.4186 117.439 66.7138C117.439 65.8449 117.088 65.1174 116.402 64.5663ZM125.695 67.2998L127.691 69.936V69.9341H128.386L126.452 67.298C127.682 67.2098 128.368 66.5264 128.368 65.426C128.368 64.2559 127.629 63.51 126.452 63.51H121.651V69.936H122.222V67.2998H125.695ZM126.197 64.0685C127.225 64.0685 127.735 64.5038 127.735 65.4003C127.735 66.2527 127.251 66.7414 126.41 66.7395H122.224V64.0685H126.197ZM132.008 69.9323V63.51H137.943V64.0685H132.579V66.2509H136.307V66.8093H132.579V69.3738H138.188V69.9323H132.008ZM141.528 65.1339C141.528 64.3532 142.382 63.8921 143.972 63.8921C144.95 63.8921 145.801 64.0795 146.618 64.5314L147.022 64.0868C146.274 63.5817 145.255 63.3502 143.936 63.3502C141.948 63.3502 140.858 64.0519 140.858 65.2056C140.858 65.843 141.157 66.2527 141.79 66.4915C142.371 66.7138 143.181 66.7487 144.243 66.7928C145.983 66.8718 146.828 67.1382 146.828 68.053C146.828 68.977 145.87 69.5447 144.094 69.5447C142.977 69.5447 142.001 69.2599 141.051 68.6482L140.718 69.1368C141.606 69.7578 142.786 70.0866 144.218 70.0866C146.345 70.0866 147.497 69.3132 147.497 68.0181C147.497 67.3255 147.199 66.8644 146.566 66.5889C145.949 66.3225 145.109 66.2893 144.043 66.2471L143.954 66.2435C142.345 66.1719 141.528 65.9588 141.528 65.1339ZM116.437 10.9818H121.793C121.793 10.9818 121.875 17.7549 121.875 25.8306V40.5213C121.875 53.2648 115.869 55.4619 107.644 55.5115H106.351C92.6664 55.5115 94.2152 41.3315 94.2152 41.3315V12.4973H88.8882L90.3896 10.9818H101.4V41.3315C101.4 44.8402 103.182 52.6347 110.489 52.6347C118.222 52.6347 120.251 47.9172 120.251 41.4417C120.251 34.4756 120.246 12.4973 120.246 12.4973H114.915L116.437 10.9818ZM165.892 27.0908C165.892 36.7242 155.338 39.9721 147.603 39.9721L160.599 53.1124H164.419L162.916 54.6298H155.551L141.048 39.9702H138.307L138.325 53.1528H143.419L141.956 54.6298H125.817L127.28 53.1528C129.436 53.1528 131.185 51.3874 131.184 49.2105L131.167 12.4184H125.818L127.243 10.98H144.089C149.316 10.98 165.892 11.6799 165.892 27.0908ZM138.252 13.7649V38.8423H144.562C147.869 38.8423 158.204 37.1632 158.204 27.0908C158.204 16.9375 152.879 13.7649 142.069 13.7649H138.252ZM43.0749 17.4151C22.6479 -3.20379 -8.8189 24.642 13.4917 47.1622C36.6013 70.4907 63.9423 38.4804 43.0749 17.4151ZM14.2761 46.3705C0.348135 32.3116 28.4644 4.25457 42.2886 18.2087C58.5207 34.5914 27.6181 59.8359 14.2761 46.3705Z" fill="#EEE5D3"/>
</svg>
