<svg viewBox="0 0 1112 380" fill="none" xmlns="http://www.w3.org/2000/svg">
<path fill-rule="evenodd" clip-rule="evenodd" d="M82.3634 108.96L74.4434 117.01H163.003L171.073 108.96H82.3634ZM779.043 294.54C821.542 294.537 879.523 276.856 879.523 224.42C879.523 140.53 788.443 136.72 759.723 136.72H667.163L659.333 144.55H688.723L688.813 344.83C688.813 356.68 679.213 366.29 667.363 366.29L659.323 374.33H748.003L756.043 366.29H728.053L727.953 294.53H743.013L822.703 374.33H863.173L871.433 366.07H850.443L779.043 294.54ZM727.653 151.88V288.39H762.323C780.493 288.39 837.283 279.69 837.283 224.42C837.283 169.15 808.023 151.88 748.623 151.88H727.653ZM268.123 136.73H360.013C388.733 136.73 465.583 150.44 465.583 224.43C465.583 272.96 414.543 311.83 365.613 311.99C344.323 312.06 328.243 305.38 328.243 305.38V366.31H356.663L348.593 374.36H260.033L267.523 366.74C267.793 366.46 268.173 366.3 268.563 366.3C279.923 366.3 289.123 357.09 289.123 345.74V145.06L260.033 144.8L268.123 136.73ZM361.963 305.33C399.333 305.33 414.023 273.34 414.023 273.34V273.35C414.023 273.35 423.323 258.98 423.323 230.75C423.323 202.52 408.303 145.6 348.903 145.6H327.933V270L327.933 270.005C327.89 270.498 324.847 305.33 361.963 305.33ZM607.773 136.73H637.203C637.203 136.73 637.653 173.6 637.653 217.56V297.53C637.653 366.9 604.653 378.86 559.463 379.13H552.353C477.163 379.13 485.673 301.94 485.673 301.94V144.98H456.403L464.653 136.73H525.153V301.94C525.153 321.04 534.943 363.47 575.093 363.47C617.583 363.47 628.733 337.79 628.733 302.54C628.733 264.62 628.703 144.98 628.703 144.98H599.413L607.773 136.73ZM1088.91 366.3L1007.12 136.73H986.313L907.273 352.23C904.173 360.68 896.133 366.3 887.133 366.3H882.223L874.163 374.35H929.603L937.653 366.3H911.083L934.983 300.37L1019.01 300.48L1042.01 366.3H1025.74L1017.71 374.35H1103.79L1111.86 366.3H1088.91ZM937.823 292.04L977.953 183.29L1016.02 292.04H937.823ZM204.683 171.75C92.4433 59.51 -80.4567 211.09 42.1333 333.68C169.113 460.66 319.353 286.42 204.683 171.75ZM46.4433 329.37C-30.0867 252.84 124.403 100.11 200.363 176.07C289.553 265.26 119.753 402.68 46.4433 329.37Z" fill="currentColor"/>
<path fill-rule="evenodd" clip-rule="evenodd" d="M392.263 16.07C386.223 9.34999 377.463 5.94 366.173 5.94C348.353 5.94 336.373 17.04 336.373 32.33C336.373 46.54 348.443 57.45 366.173 57.45C377.753 57.45 386.233 54.33 392.263 47.52L397.613 50.83C390.893 59.4 380.673 63.39 366.163 63.39C356.043 63.39 347.083 60.37 340.753 55.21C333.453 49.27 329.653 41.29 329.653 31.65C329.653 22.01 333.353 14.32 340.853 8.28C347.283 3.12 356.233 0 366.173 0C379.803 0 391.003 4.97 398.013 13.83L392.273 16.07H392.263ZM434.713 61.82V1.94995H441.043V55.69H487.383V61.82H434.713ZM512.893 42.27C512.893 54.14 525.263 62.81 545.123 62.81C564.893 62.81 577.063 54.24 577.063 42.27V1.95996H570.733V40.22C570.733 51.12 562.363 56.77 545.123 56.77C527.883 56.77 519.223 51.12 519.223 40.22V1.95996H512.893V42.27ZM684.553 45.7699C684.553 55.5099 677.153 61.8299 665.173 61.8299H617.663V1.94995H664.783C676.083 1.94995 682.703 8.07995 682.703 17.53C682.703 23.76 679.873 27.95 673.743 31.06C681.043 34.27 684.553 38.95 684.553 45.76V45.7699ZM675.983 17.6299C675.983 12.0799 671.993 8.08995 665.663 8.08995H623.993V28.44H664.393C671.013 28.44 675.983 23.7699 675.983 17.6299ZM677.923 45.47C677.923 38.85 673.153 34.57 665.263 34.57H623.983V55.6999H665.073C673.443 55.6999 677.923 52.1 677.923 45.48V45.47ZM723.003 1.94995V61.82H782.203V55.69H729.333V33.1999H764.483V27.07H729.333V8.07996H779.863V1.94995H723.003Z" fill="currentColor"/>
</svg>
