<svg viewBox="0 0 453 903" fill="none" xmlns="http://www.w3.org/2000/svg">
<path fill-rule="evenodd" clip-rule="evenodd" d="M62.62 16.83C56.58 10.11 47.82 6.70001 36.53 6.70001C18.71 6.70001 6.73001 17.8 6.73001 33.09C6.73001 47.3 18.8 58.21 36.53 58.21C48.11 58.21 56.59 55.09 62.62 48.28L67.97 51.59C61.25 60.16 51.03 64.15 36.52 64.15C26.4 64.15 17.44 61.13 11.11 55.97C3.81 50.03 0.0100098 42.05 0.0100098 32.41C0.0100098 22.77 3.71001 15.08 11.21 9.04001C17.64 3.88001 26.59 0.76001 36.53 0.76001C50.16 0.76001 61.36 5.73001 68.37 14.59L62.63 16.83H62.62ZM105.06 62.5799V2.70996H111.39V56.45H157.73V62.5799H105.06ZM183.24 43.03C183.24 54.9 195.61 63.57 215.47 63.57C235.24 63.57 247.41 55 247.41 43.03V2.71997H241.08V40.98C241.08 51.88 232.71 57.53 215.47 57.53C198.23 57.53 189.57 51.88 189.57 40.98V2.71997H183.24V43.03ZM354.9 46.53C354.9 56.27 347.5 62.59 335.52 62.59H288.01V2.70996H335.13C346.43 2.70996 353.05 8.83995 353.05 18.2899C353.05 24.5199 350.22 28.71 344.09 31.82C351.39 35.03 354.9 39.7099 354.9 46.5199V46.53ZM346.33 18.39C346.33 12.84 342.34 8.84996 336.01 8.84996H294.34V29.2H334.74C341.36 29.2 346.33 24.53 346.33 18.39ZM348.28 46.23C348.28 39.61 343.51 35.3299 335.62 35.3299H294.34V56.4599H335.43C343.8 56.4599 348.28 52.8599 348.28 46.2399V46.23ZM393.35 2.70996V62.5799H452.55V56.45H399.68V33.9599H434.83V27.83H399.68V8.83995H450.21V2.70996H393.35Z" fill="currentColor"/>
<path fill-rule="evenodd" clip-rule="evenodd" d="M81.92 117.77L89.84 109.72H178.55L170.48 117.77H81.92ZM8.11002 402.97H100C128.72 402.97 205.57 416.68 205.57 490.67C205.57 539.2 154.53 578.07 105.6 578.23C84.31 578.3 68.23 571.62 68.23 571.62V632.55H96.65L88.58 640.6H0.0200195L7.51001 632.98C7.78001 632.7 8.16002 632.54 8.55002 632.54C19.91 632.54 29.11 623.33 29.11 611.98V411.3L0.0200195 411.04L8.11002 402.97ZM101.96 571.58C139.33 571.58 154.02 539.59 154.02 539.59V539.6C154.02 539.6 163.32 525.23 163.32 497C163.32 468.77 148.3 411.85 88.9 411.85H67.93V536.25L67.9296 536.255C67.8865 536.748 64.8439 571.58 101.96 571.58ZM377.2 402.97H347.77L339.41 411.22H368.7C368.7 411.22 368.73 530.86 368.73 568.78C368.73 604.03 357.58 629.71 315.09 629.71C274.94 629.71 265.15 587.28 265.15 568.18V402.97H204.65L196.4 411.22H225.67V568.18C225.67 568.18 217.16 645.37 292.35 645.37H299.46C344.65 645.1 377.65 633.14 377.65 563.77V483.8C377.65 439.84 377.2 402.97 377.2 402.97ZM347.82 665.25L429.61 894.82H452.56L444.49 902.87H358.41L366.44 894.82H382.71L359.71 829L275.68 828.89L251.78 894.82H278.35L270.3 902.87H214.86L222.92 894.82H227.83C236.83 894.82 244.87 889.2 247.97 880.75L327.01 665.25H347.82ZM318.65 711.82L278.52 820.57H356.72L318.65 711.82ZM220.22 752.95C220.22 805.386 162.239 823.067 119.74 823.07L191.14 894.6H212.13L203.87 902.86H163.4L83.71 823.06H68.65L68.75 894.82H96.74L88.7 902.86H0.0200195L8.06001 894.82C19.91 894.82 29.51 885.21 29.51 873.36L29.42 673.08H0.030014L7.86002 665.25H100.42C129.14 665.25 220.22 669.06 220.22 752.95ZM68.35 816.91V680.4H89.32C148.72 680.4 177.98 697.67 177.98 752.94C177.98 808.21 121.19 816.91 103.02 816.91H68.35ZM212.16 172.51C99.92 60.2701 -72.98 211.85 49.61 334.44C176.59 461.42 326.83 287.18 212.16 172.51ZM53.92 330.13C-22.61 253.6 131.88 100.87 207.84 176.83C297.03 266.02 127.23 403.44 53.92 330.13Z" fill="currentColor"/>
</svg>
