<svg width="180" height="341" viewBox="0 0 180 341" fill="none" xmlns="http://www.w3.org/2000/svg">
<path fillRule="evenodd" clip-rule="evenodd" d="M32.9735 3.77982L36.1008 0.608093H71.128L67.9416 3.77982H32.9735ZM20.3225 327.413V339.994H21.5703V326.212H19.6631L12.6032 335.404L5.563 326.212H3.63613V339.994H4.87597V327.413H4.93124L12.5993 337.236L20.2475 327.413H20.3225ZM42.8488 339.994L40.9614 336.416H31.2323L29.3054 339.994H27.8761L35.1808 326.212H37.0129L44.2821 339.994H42.8488ZM36.1916 327.41H36.0179L31.8601 335.215H40.3297L36.1916 327.41ZM36.0376 325.164H35.4098L36.4957 322.52H38.0237L36.0376 325.164ZM59.3655 334.34L63.697 339.994V339.99H65.2053L61.008 334.336C63.6772 334.147 65.1658 332.681 65.1658 330.321C65.1658 327.811 63.5627 326.212 61.008 326.212H50.5919V339.994H51.8317V334.34H59.3655ZM60.4552 327.41C62.6862 327.41 63.7917 328.343 63.7917 330.266C63.7917 332.094 62.7454 333.142 60.9172 333.138H51.8356V327.41H60.4552ZM89.7532 339.994V327.413H89.6782L82.0299 337.236L74.3619 327.413H74.3066V339.994H73.0668V326.212H74.9937L82.0339 335.404L89.0938 326.212H91.001V339.994H89.7532ZM107.15 340.392C109.441 340.392 111.462 339.691 112.911 338.509C114.609 337.118 115.466 335.309 115.466 333.083C115.466 330.892 114.589 329.068 112.892 327.677C111.423 326.48 109.381 325.774 107.15 325.774C104.9 325.774 102.858 326.48 101.389 327.677C99.6916 329.068 98.8151 330.892 98.8151 333.083C98.8151 335.309 99.6719 337.118 101.37 338.509C102.819 339.687 104.86 340.392 107.15 340.392ZM107.15 326.937C108.982 326.937 110.68 327.524 111.9 328.477C113.385 329.655 114.151 331.219 114.151 333.083C114.151 336.739 111.367 339.214 107.15 339.214C102.933 339.214 100.169 336.755 100.169 333.083C100.169 331.2 100.912 329.659 102.4 328.477C103.601 327.528 105.318 326.937 107.15 326.937ZM136.389 339.994L132.058 334.34H124.524V339.994H123.284V326.212H133.7C136.255 326.212 137.858 327.811 137.858 330.321C137.858 332.681 136.369 334.147 133.7 334.336L137.897 339.99H136.389V339.994ZM136.484 330.266C136.484 328.343 135.378 327.41 133.147 327.41H124.528V333.138H133.609C135.438 333.142 136.484 332.094 136.484 330.266ZM145.755 326.212V339.986H159.164V338.788H146.995V333.288H155.081V332.09H146.995V327.41H158.631V326.212H145.755ZM171.716 327.031C168.265 327.031 166.414 328.02 166.414 329.695C166.414 331.464 168.187 331.921 171.677 332.075L171.871 332.082C174.183 332.173 176.006 332.244 177.343 332.815C178.717 333.406 179.365 334.395 179.365 335.881C179.365 338.658 176.865 340.317 172.25 340.317C169.142 340.317 166.583 339.612 164.657 338.28L165.379 337.232C167.44 338.544 169.557 339.155 171.981 339.155C175.835 339.155 177.912 337.937 177.912 335.955C177.912 333.993 176.08 333.422 172.305 333.253C169.999 333.158 168.242 333.083 166.982 332.606C165.608 332.094 164.961 331.216 164.961 329.848C164.961 327.374 167.326 325.869 171.638 325.869C174.5 325.869 176.711 326.365 178.334 327.449L177.458 328.402C175.685 327.429 173.833 327.031 171.716 327.031ZM3.8296 116.153H40.1125C51.4566 116.153 81.8009 121.555 81.797 150.707C81.797 169.828 61.6438 185.143 42.3237 185.206C33.9173 185.234 27.5681 182.602 27.5681 182.602V206.608H38.7898L35.6033 209.78H0.635254L3.59269 206.778C3.6993 206.667 3.84934 206.604 4.00333 206.604C8.48885 206.604 12.1215 202.976 12.1215 198.504V119.435L0.635254 119.333L3.8296 116.153ZM40.8864 182.582C55.642 182.582 61.4424 169.978 61.4424 169.978C61.4424 169.978 65.1185 164.32 65.1145 153.197C65.1145 142.075 59.1838 119.648 35.7297 119.648H27.4496V168.662L27.4494 168.664C27.4325 168.858 26.2349 182.582 40.8864 182.582ZM149.569 116.153H137.949L134.648 119.404H146.213C146.213 119.404 146.225 166.542 146.225 181.483C146.225 195.371 141.822 205.489 125.045 205.489C109.192 205.489 105.326 188.772 105.326 181.246V116.153H81.4377L78.1801 119.404H89.7374V181.246C89.7374 181.246 86.3772 211.659 116.066 211.659H118.874C136.717 211.553 149.747 206.841 149.747 179.509V148C149.747 130.68 149.569 116.153 149.569 116.153ZM137.965 219.492L170.259 309.943H179.321L176.135 313.115H142.146L145.317 309.943H151.741L142.659 284.01L109.48 283.967L100.043 309.943H110.534L107.356 313.115H85.4651L88.6476 309.943H90.5864C94.14 309.943 97.3146 307.729 98.5387 304.4L129.748 219.492H137.965ZM126.447 237.837L110.601 280.685H141.479L126.447 237.837ZM47.9029 281.67C64.6841 281.67 87.5815 274.704 87.5815 254.042C87.5815 220.989 51.6185 219.488 40.2783 219.488H3.73089L0.639206 222.573H12.2439L12.2794 301.484C12.2834 306.153 8.48885 309.939 3.80986 309.939L0.635254 313.107H35.6507L38.8253 309.939H27.7734L27.7339 281.666H33.6804L65.1461 313.107H81.1257L84.3872 309.853H76.0993L47.9029 281.67ZM27.6155 279.251V225.461H35.8955C59.3497 225.461 70.903 232.266 70.903 254.042C70.903 275.649 48.4794 279.247 41.3049 279.247C36.9655 279.251 27.6155 279.251 27.6155 279.251ZM84.399 25.3514C40.0809 -18.8714 -28.1889 40.8515 20.2159 89.1522C70.3542 139.187 129.677 70.5317 84.399 25.3514ZM21.9217 87.4541C-8.29628 57.3011 52.7043 -2.87493 82.6972 27.0535C117.91 62.1907 50.8643 116.334 21.9217 87.4541Z" fill="#EEE5D3"/>
</svg>
