<svg xmlns="http://www.w3.org/2000/svg" width="2090" height="1177" viewBox="0 0 2090 1177" fill="none">
  <path fillRule="evenodd" clip-rule="evenodd" d="M1318.04 0.34569C1306.78 -0.0445726 1293.5 -0.504903 1285.28 1.43807C1288.99 11.6373 1290.99 55.9574 1292.21 83.1581L1292.22 83.1698L1292.22 83.1878L1292.22 83.2193C1292.53 90.2077 1292.8 96.0615 1293.03 99.909C1293.31 104.73 1293.59 109.575 1293.88 114.443L1293.9 114.834C1300.4 225.866 1307.57 348.432 1351.96 450.635C1359.22 467.358 1374.74 500.174 1392.04 508.488C1393.91 509.381 1395.67 509.663 1397.72 509.682C1400.79 508.384 1402.38 507.371 1403.65 504.111C1406.34 497.224 1407.46 478.945 1404.08 472.161C1403.97 471.952 1403.86 471.748 1403.74 471.545L1403.74 471.542L1403.74 471.539C1403.68 471.439 1403.62 471.338 1403.57 471.237C1405.62 466.77 1402.79 451.047 1401.1 441.664L1401.1 441.659C1400.71 439.487 1400.38 437.654 1400.19 436.381C1395.58 405.928 1392.3 376.259 1390.69 345.467C1389.8 328.103 1389.31 310.728 1389.21 293.342C1389.12 275.956 1389.43 258.577 1390.13 241.205C1390.83 223.832 1391.93 206.485 1393.44 189.163C1394.93 171.842 1396.82 154.564 1399.12 137.329C1401.4 120.315 1404.17 103.383 1407.45 86.5317C1410.71 69.6804 1414.47 52.939 1418.72 36.3077C1419.18 34.5574 1420.01 31.9151 1420.97 28.8301C1423.97 19.2285 1428.31 5.33844 1427.2 0.705059L1329.29 0.62481C1326.05 0.623492 1322.18 0.489337 1318.04 0.34569ZM2086.88 372.807L2088.35 372.596C2089.07 368.957 2089.02 368.228 2087.82 364.716L2087.78 364.665C2087.7 364.549 2087.62 364.432 2087.54 364.32C2083.49 358.957 2070.33 350.138 2059.82 343.1C2055.41 340.146 2051.47 337.507 2048.87 335.568C1991.47 292.818 1931.82 240.145 1941.18 161.724C1947.44 109.306 1978.95 59.7916 2016.8 24.1369C2018.26 22.7674 2020.79 20.6868 2023.7 18.2926C2030.96 12.3261 2040.59 4.41178 2041.84 0.699676C2041.17 0.685303 2040.47 0.65924 2039.75 0.632418L2039.75 0.6324C2036.62 0.515786 2033.11 0.384865 2030.33 1.13792C2008.79 6.96346 1965.2 41.8095 1949.09 57.308C1919.95 85.3354 1897.52 121.231 1896.74 162.726C1895.91 207.543 1919.68 249.608 1950 281.016C1986.99 319.32 2038.89 350.231 2086.88 372.807ZM2089.16 29.9402C2041.1 55.3086 1996.78 92.9134 1980.22 146.578C1972.98 170.035 1970.82 197.594 1982.85 219.866C1995.24 242.794 2019.71 254.964 2043.74 261.921C2045.24 262.355 2049.41 263.271 2054.64 264.416C2067.44 267.224 2086.53 271.412 2087.89 273.264C2087.95 273.613 2088.02 273.958 2088.09 274.303C2088.38 275.665 2088.66 277.003 2088.29 278.372L2086.96 278.863C2048.57 272.879 2003.8 265.739 1978.64 232.743C1963.17 212.463 1960.07 186.948 1963.5 162.28C1970.61 111.15 2004.1 67.5823 2044.35 37.1933C2050.03 32.9018 2082.09 10.0401 2088.01 10.8672C2089.77 15.3212 2089.51 21.4277 2089.28 26.6833V26.6847V26.6878C2089.23 27.8198 2089.18 28.9123 2089.16 29.9402ZM907.476 879.369C909.912 881.336 913.335 890.633 916.356 898.84C918.19 903.82 919.875 908.399 921.103 910.694C942.818 951.287 974.816 984.266 1013.41 1009.05C1115.61 1074.65 1248.72 1074.46 1369.73 1074.29H1369.75C1386.37 1074.27 1402.76 1074.24 1418.81 1074.39C1421.79 1074.42 1424.78 1074.45 1427.77 1074.47H1427.77C1511.14 1075.23 1595.26 1075.98 1678.05 1086.06C1731.42 1092.55 1789.58 1102.5 1837.21 1128.49C1846.75 1133.68 1875.13 1151.41 1878.09 1161.45L1875.02 1160.46C1870.84 1151.46 1831.1 1134.66 1821.83 1130.96C1710.48 1086.59 1550.6 1080.96 1430.77 1082.06C1406.93 1082.29 1383.07 1083.29 1359.22 1084.3H1359.22H1359.22H1359.22H1359.21H1359.21H1359.21H1359.21H1359.2H1359.2H1359.2H1359.2H1359.19H1359.19H1359.19H1359.19C1331.67 1085.46 1304.17 1086.62 1276.69 1086.57C1177.2 1086.41 1066.67 1070.13 986.018 1007.41C945.125 975.603 914.07 931.674 907.476 879.369ZM1371.05 579.345C1373.77 580.063 1386.76 594.522 1395.98 604.785L1395.99 604.787C1399.94 609.185 1403.2 612.812 1404.66 614.256C1413.52 623.071 1422.83 631.383 1432.59 639.192C1468.1 667.676 1509.25 689.018 1554.07 697.905C1583.41 703.723 1649.28 707.06 1674.79 689.444C1677.93 687.271 1680.79 684.23 1681.29 680.271C1683.23 664.669 1645.64 649.583 1624.21 640.985C1619.38 639.048 1615.38 637.44 1612.83 636.23C1597.1 628.766 1564.66 612.259 1553.65 599.301C1560.64 601.296 1568.39 605.974 1576.04 610.589C1581.38 613.81 1586.67 617 1591.61 619.226C1598.95 622.528 1606.57 625.233 1614.18 627.934C1622.48 630.879 1630.77 633.819 1638.64 637.521C1643.44 638.386 1648.33 639.843 1653.16 641.284C1655.65 642.028 1658.13 642.767 1660.58 643.42C1673.16 646.781 1685.82 649.795 1698.57 652.461C1706.11 654.041 1713.86 655.086 1721.63 656.132L1721.63 656.133C1732.28 657.566 1742.93 659.002 1753.03 661.817C1759.38 663.585 1766.38 666.089 1771.3 670.628C1774.04 673.161 1776.35 676.656 1776.31 680.524C1776.26 685.264 1772.83 689.252 1769.45 692.211C1762.69 698.127 1754.09 702.873 1746.23 707.206L1745.94 707.368C1704.57 730.201 1657.65 738.984 1610.72 735.531C1531.33 729.69 1460.86 687.034 1408.74 628.278C1401.47 620.076 1394.26 611.6 1387.86 602.68C1386.09 600.198 1384.37 597.62 1382.64 595.03C1379.16 589.821 1375.65 584.566 1371.6 579.962L1371.05 579.345ZM686.243 652.178C728.631 620.63 788.949 575.738 793.855 543.88C770.009 577.187 747.57 590.771 716.63 609.503C711.879 612.379 706.927 615.377 701.738 618.586C663.867 642.012 625.125 667.841 596.973 702.846C566.713 740.47 548.801 785.214 530.961 829.776C524.115 846.877 517.279 863.951 509.761 880.586C509.42 881.34 509.079 882.096 508.736 882.854C499.745 902.774 490.059 924.231 475.285 940.368C466.507 949.956 455.634 957.429 442.614 959.582C422.927 962.837 404.102 953.856 388.625 942.468C378.219 934.812 369.094 925.651 359.995 916.516C359.56 916.08 359.126 915.644 358.691 915.208C362.867 922.749 368.509 929.694 374.156 936.185C393.76 959.035 422.189 989.494 454.361 991.793C468.099 992.775 480.403 987.469 490.651 978.533C524.408 949.098 548.182 882.68 567.288 829.303L567.288 829.303C572.755 814.031 577.839 799.826 582.666 787.862C593.489 761.03 605.802 734.554 622.892 711.084C632.133 698.395 642.281 687.062 654.206 676.859C661.716 670.432 673.12 661.945 686.243 652.178ZM2088.03 244.492L2087.08 244.897C2067 234.522 2048.25 216.594 2037.11 196.892C2026.75 178.565 2020 153.548 2025.86 132.85C2031.95 111.319 2049.51 95.04 2065.55 80.1738C2066.62 79.1748 2067.69 78.1822 2068.75 77.1948C2069.86 76.1661 2070.99 75.079 2072.15 73.9667C2077.04 69.2828 2082.39 64.1538 2087.88 61.0756C2089.19 64.3156 2089.81 66.6379 2088.42 69.9678C2088.34 70.1522 2088.25 70.3345 2088.17 70.5164C2088.1 70.6748 2088.03 70.8329 2087.96 70.9918L2087.87 71.146C2087.82 71.2404 2087.77 71.3347 2087.72 71.4268C2085.59 75.0381 2081.05 78.4705 2077.22 81.3677C2076.24 82.1104 2075.3 82.8179 2074.46 83.4842C2072.51 85.0451 2070.49 86.5794 2068.47 88.1199L2068.47 88.1211L2068.46 88.1222L2068.46 88.1238L2068.46 88.1265L2068.45 88.1301L2068.45 88.1376L2068.44 88.1387C2063.84 91.639 2059.2 95.1714 2055.11 99.1177C2036.47 117.106 2035.68 140.161 2041.27 163.882C2046 183.936 2056.33 205.465 2071.02 220.062C2072.62 221.65 2074.61 223.369 2076.68 225.163L2076.68 225.166C2080.88 228.8 2085.42 232.738 2087.83 236.506C2089.06 239.767 2089.4 241.132 2088.03 244.492ZM1960.27 0.69104L1893.45 0.689087L1893.37 0.82819L1893.36 0.845639L1893.35 0.850981C1893.31 0.933021 1893.26 1.01487 1893.21 1.09473C1891.41 3.92695 1878.02 14.8835 1867.59 23.4101L1867.59 23.4122C1862.52 27.5604 1858.15 31.1331 1856.16 32.9151C1798.19 84.9411 1761.33 142.127 1777.28 222.834C1789.04 282.38 1828.21 332.064 1877.92 365.331C1909.86 386.703 1945.51 400.861 1981.13 415.006L1981.13 415.007C1999.88 422.452 2018.61 429.894 2036.8 438.382C2049.84 444.467 2062.7 451.129 2074.83 458.88C2075.67 459.414 2076.81 460.268 2078.08 461.225C2081.36 463.69 2085.54 466.841 2087.91 466.985L2088.44 466.774C2090.42 459.764 2089.93 450.079 2089.48 441.45V441.448V441.445V441.443V441.441V441.439V441.436V441.434V441.431V441.429V441.426C2089.33 438.358 2089.18 435.423 2089.15 432.791C2086.34 431.483 2083.53 430.18 2080.72 428.877C2061.97 420.18 2043.21 411.482 2025.19 401.333C1963.22 366.445 1908.08 315.629 1883.22 247.468C1864.56 196.333 1865.07 142.25 1888.11 92.623C1890.19 88.2104 1892.41 83.8689 1894.76 79.5986C1897.12 75.3282 1899.61 71.1377 1902.24 67.0271C1904.86 62.9164 1907.62 58.894 1910.5 54.9599C1913.38 51.0259 1916.39 47.1881 1919.52 43.4466C1928.02 33.1572 1936.03 25.6038 1944.35 17.7558C1948.64 13.71 1953.01 9.5859 1957.57 4.96821C1958.81 3.713 1959.83 2.42411 1960.27 0.69104ZM0.998335 17.1778C88.8956 38.7956 240.419 79.8298 289.927 161.669C309.04 193.262 306.793 224.917 298.173 259.621C286.154 308.008 266.376 354.709 246.887 400.728L246.887 400.729L246.883 400.737L246.88 400.744C244.068 407.384 241.262 414.01 238.486 420.624C235.113 428.662 231.694 436.726 228.262 444.819L228.26 444.823C203.606 502.962 178.338 562.548 165.403 624.105C159.996 649.837 158.526 675.13 158.725 701.341C159.383 788.033 184.477 870.428 228.866 944.527C281.288 1032.04 360.308 1112.25 438.352 1176.99H426.232C421.235 1173.02 416.224 1169.08 411.218 1165.14C396.497 1153.57 381.811 1142.02 367.59 1129.73C296.787 1068.53 232.421 996.261 188.162 913.29C97.0609 742.507 128.496 614.669 190.435 441.413C194.649 429.626 198.991 417.865 203.335 406.097L203.336 406.095C213.843 377.635 224.364 349.137 233.116 320.153C247.4 272.847 258.309 220.43 233.65 174.592C196.547 105.616 73.8243 57.7616 1.00272 35.8765L0.998335 17.1778ZM1760.88 0.673828L1812.01 0.676453C1811.52 2.11382 1811.16 2.85161 1810.04 3.91872C1803.64 9.98652 1797.13 15.8342 1790.64 21.669C1778.6 32.4945 1766.61 43.2753 1755.38 55.3341C1752.52 58.4521 1749.72 61.6229 1746.97 64.8464C1744.23 68.0699 1741.55 71.344 1738.93 74.6686C1736.31 77.9931 1733.75 81.3658 1731.26 84.7867C1728.77 88.2076 1726.34 91.6741 1723.98 95.1864C1721.61 98.6987 1719.31 102.254 1717.09 105.853C1714.85 109.452 1712.69 113.092 1710.61 116.771C1708.51 120.452 1706.49 124.17 1704.53 127.927C1702.58 131.683 1700.7 135.475 1698.88 139.302C1672.87 195.189 1664 258.437 1685.56 317.277C1697.21 349.048 1717.01 377.129 1741.03 400.734C1810.56 469.048 1903.85 494.807 1996.08 515.221L2058.83 529.036C2061.2 529.567 2063.76 530.058 2066.4 530.564C2073.95 532.009 2082.16 533.583 2088.37 536.587C2088.56 536.683 2088.76 536.787 2088.95 536.887C2089.8 557.303 2090.77 590.246 2088.89 609.989L2088.4 610.217C2085.78 609.939 2075.26 603.801 2066.91 598.936C2062.91 596.6 2059.4 594.558 2057.52 593.599C2046.82 588.152 2035.96 583.053 2024.94 578.302C2013.91 573.552 2002.75 569.16 1991.44 565.125C1953.05 551.238 1913.69 540.451 1874.33 529.662L1874.33 529.662C1840.99 520.522 1807.64 511.382 1774.88 500.356C1742.42 489.433 1709.02 477.196 1680 458.791C1635.75 430.731 1603.85 389.116 1592.36 337.562C1567.81 227.347 1637.02 118.526 1712.17 44.22C1715.21 41.2047 1728.09 29.9854 1739.77 19.8092C1750.41 10.5406 1760.06 2.13737 1760.37 1.58619C1760.54 1.31372 1760.69 1.03348 1760.83 0.756078L1760.88 0.673828ZM961.123 0.680298L946.404 0.691177C949.627 9.8574 952.658 19.0869 955.498 28.3797C958.336 37.6726 960.98 47.0206 963.43 56.4239C965.88 65.8272 968.133 75.2775 970.19 84.7748C972.246 94.2722 974.104 103.808 975.763 113.383C1003.01 271.278 979.956 441.643 898.537 580.93C879.345 613.762 856.751 644.281 834.157 674.8C823.375 689.364 812.592 703.929 802.18 718.745C752.483 789.458 712.397 865.943 728.049 955.247C744.799 1050.82 811.733 1123.15 888.408 1176.99L1124.46 1176.96C1118.25 1173.91 1110.61 1172.07 1103.28 1170.31L1103.28 1170.31L1103.27 1170.31L1103.27 1170.31L1103.26 1170.31L1103.26 1170.31C1100.26 1169.59 1097.3 1168.88 1094.53 1168.1C1078.12 1163.59 1061.84 1158.66 1045.68 1153.33C963.946 1126.16 841.108 1073.91 786.302 1005.93C711.922 913.676 778.584 800.775 830.388 713.039L830.4 713.019L830.464 712.91C833.55 707.684 836.583 702.547 839.53 697.509C841.591 693.984 843.656 690.46 845.72 686.935C870.488 644.646 895.298 602.285 916.733 558.19C953.837 481.864 979.502 401.959 988.568 317.325C990.454 333.207 984.534 364.904 980.824 384.765L980.823 384.775L980.812 384.831L980.81 384.841C980.389 387.097 979.996 389.199 979.647 391.107C978.354 398.469 976.947 405.808 975.428 413.126C973.909 420.444 972.277 427.737 970.534 435.004C968.789 442.272 966.934 449.511 964.966 456.721C962.999 463.931 960.922 471.109 958.733 478.256C956.545 485.401 954.247 492.512 951.84 499.587C949.433 506.662 946.917 513.698 944.294 520.695C941.669 527.692 938.938 534.647 936.1 541.561C933.261 548.473 930.317 555.341 927.267 562.162C918.3 582.165 908.145 601.54 897.983 620.929L897.982 620.93L897.982 620.93L897.982 620.931L897.981 620.932L897.981 620.933L897.981 620.933C894.452 627.666 890.922 634.401 887.441 641.164C852.38 709.275 811.039 791.283 805.272 868.767C802.034 912.258 812.656 952.019 841.418 985.298C916.394 1072.05 1101.34 1115.11 1209.64 1135.76C1215 1136.78 1220.42 1137.85 1225.87 1138.92L1225.9 1138.92C1251.78 1144.01 1278.51 1149.26 1304.36 1151.18C1300.31 1148.78 1279.98 1145.15 1265.5 1142.56C1259.82 1141.55 1255.04 1140.69 1252.49 1140.14C1234.53 1136.21 1216.65 1131.98 1198.84 1127.44C1128.65 1109.31 1058.34 1085.25 995.162 1049.21C945.724 1021 899.105 984.141 869.747 934.539C856.661 912.428 846.645 887.035 843.351 861.439C834.699 794.207 867.543 714.828 896.363 654.78C900.362 646.45 904.554 638.207 908.747 629.963L908.749 629.96C914.558 618.538 920.368 607.116 925.662 595.459C933.164 578.711 940.022 561.703 946.236 544.435C952.45 527.165 958.002 509.685 962.891 491.994C964.257 486.997 965.581 481.989 966.862 476.969C968.143 471.949 969.382 466.919 970.579 461.878C971.775 456.838 972.928 451.788 974.039 446.727C975.15 441.667 976.218 436.597 977.243 431.519C978.268 426.441 979.251 421.355 980.19 416.26C981.129 411.164 982.025 406.061 982.878 400.951C983.731 395.841 984.541 390.724 985.307 385.6C986.074 380.476 986.798 375.346 987.478 370.211C988.157 365.074 988.794 359.933 989.387 354.786C989.98 349.639 990.529 344.487 991.034 339.331C991.541 334.175 992.003 329.014 992.422 323.85C992.84 318.686 993.216 313.519 993.547 308.348C993.878 303.178 994.166 298.005 994.41 292.829C994.654 287.654 994.854 282.477 995.01 277.298C995.167 272.12 995.28 266.94 995.348 261.759C995.418 256.579 995.443 251.398 995.423 246.216C995.405 241.035 995.343 235.855 995.236 230.675C995.13 225.495 994.981 220.316 994.787 215.139C994.593 209.962 994.355 204.786 994.074 199.612C993.793 194.439 993.469 189.269 993.1 184.1C992.731 178.933 992.319 173.768 991.863 168.607C991.407 163.446 990.908 158.289 990.364 153.136C989.822 147.984 989.235 142.837 988.605 137.695C987.976 132.552 987.302 127.415 986.585 122.284C985.868 117.153 985.109 112.028 984.305 106.91C983.502 101.792 982.655 96.6807 981.765 91.5766C980.875 86.4726 979.942 81.3766 978.966 76.2886C977.991 71.2005 976.972 66.121 975.91 61.0502C974.848 55.9794 973.744 50.918 972.596 45.8659C971.449 40.8138 970.259 35.7718 969.026 30.7399C967.794 25.708 966.519 20.6869 965.202 15.6767C963.884 10.6663 962.524 5.66755 961.123 0.680298ZM974.317 0.686397L999.697 0.684814C1045.36 111.335 1057.31 239.853 1037.03 357.431C1029.36 401.866 1018.63 445.812 1007.89 489.754L1007.89 489.756L1007.89 489.757C1000.12 521.571 992.349 553.383 985.744 585.376C972.312 650.44 961.55 719.105 968.006 785.671C973.58 843.141 993.318 897.867 1036.65 937.564C1148.31 1039.85 1385.65 1018.91 1549.24 1004.48L1549.25 1004.48C1570.88 1002.57 1591.22 1000.78 1609.81 999.4C1688.89 993.527 1769.11 989.894 1848.06 999.418C1916.24 1007.65 1986.6 1025.52 2045.06 1062.65C2060.71 1072.6 2074.78 1084.18 2089.08 1095.95C2089.11 1098.97 2089.26 1103.12 2089.42 1107.84V1107.85V1107.85C2089.97 1123.5 2090.73 1145.49 2088.47 1154.02C2086.85 1153.98 2085.18 1151.84 2083.83 1150.12C2083.46 1149.65 2083.11 1149.21 2082.8 1148.85C2020.47 1078.35 1927.63 1047.46 1836.98 1034.71C1769.36 1025.21 1700.27 1026.02 1632.25 1029.87C1600.94 1031.65 1566.49 1034.58 1530.21 1037.68L1530.2 1037.68C1376.17 1050.8 1189.09 1066.75 1068.29 1008.56C886.552 921.013 941.127 694.538 986.311 507.029L986.312 507.028C1000.78 446.977 1014.29 390.923 1018.76 344.708C1019.4 337.453 1019.95 330.189 1020.39 322.919C1020.83 315.648 1021.18 308.373 1021.42 301.093C1021.67 293.813 1021.82 286.53 1021.87 279.246C1021.92 271.962 1021.87 264.678 1021.72 257.396C1021.58 250.113 1021.33 242.834 1020.98 235.558C1020.64 228.282 1020.2 221.011 1019.65 213.747C1019.11 206.483 1018.48 199.228 1017.74 191.981C1017 184.734 1016.17 177.499 1015.23 170.275C1014.3 163.051 1013.27 155.841 1012.14 148.645C1011.02 141.449 1009.79 134.269 1008.46 127.106C1007.14 119.944 1005.72 112.8 1004.2 105.676C1002.69 98.5517 1001.08 91.4493 999.369 84.3689C997.661 77.2884 995.857 70.2324 993.958 63.2009C992.059 56.1693 990.065 49.1649 987.976 42.1875C985.887 35.2102 983.704 28.2624 981.428 21.3442C979.151 14.4261 976.78 7.54019 974.317 0.686397ZM1695.73 0.658203L1479.91 0.688325C1479.66 3.75321 1477.72 6.99281 1475.96 9.92066L1475.96 9.92329L1475.96 9.92436C1475.46 10.7645 1474.97 11.5789 1474.54 12.3562C1468.85 22.6054 1463.63 33.0858 1458.87 43.7975C1454.11 54.5091 1449.83 65.4103 1446.03 76.5009C1429.51 125.389 1421.49 177.521 1417.09 228.78C1415.68 244.257 1414.67 259.76 1414.06 275.29C1413.45 290.82 1413.25 306.354 1413.46 321.894C1413.66 337.434 1414.27 352.958 1415.28 368.467C1416.3 383.975 1417.72 399.446 1419.54 414.88C1421.23 429.066 1423.38 443.29 1425.52 457.53C1429.06 481.013 1432.61 504.539 1434.14 528.004C1434.18 528.506 1434.21 529.032 1434.25 529.579C1434.83 538.051 1435.75 551.548 1430.82 557.954C1430.48 558.394 1430.08 558.797 1429.67 559.171C1428.29 560.427 1426 560.684 1424.23 560.552C1407.34 559.288 1381.6 534.65 1371.42 521.864C1300.44 432.694 1283.85 226.507 1273.64 99.6694C1272.85 89.8553 1272.1 80.5163 1271.36 71.7434C1271.14 69.0742 1270.88 64.7951 1270.57 59.6177L1270.57 59.6069L1270.57 59.6004L1270.56 59.5957C1269.37 39.8727 1267.4 7.14161 1263.51 0.687764L1215.61 0.707439L1215.71 0.788825C1215.83 0.884982 1215.94 0.980039 1216.05 1.08154C1222.54 7.06379 1233.43 38.8667 1236.87 48.9198C1240.18 58.6607 1243.27 68.4707 1246.15 78.3498C1249.02 88.2289 1251.67 98.1675 1254.11 108.165C1256.54 118.163 1258.75 128.21 1260.74 138.307C1262.73 148.403 1264.49 158.539 1266.02 168.714C1270.5 197.185 1273.77 225.811 1277.05 254.438L1277.05 254.442L1277.05 254.445L1277.05 254.448L1277.05 254.452C1280.31 282.9 1283.56 311.349 1287.99 339.647C1298.62 407.506 1321.33 498.308 1358.28 556.827C1367.85 571.984 1381.05 587.631 1393.9 600.137C1411.98 617.748 1434.86 631.831 1457.41 642.91C1493.97 660.886 1534.48 673.153 1575.55 672.423C1575.83 672.418 1576.12 672.413 1576.42 672.408C1582.63 672.308 1591.62 672.162 1596.07 667.656C1597.04 666.677 1597.26 665.732 1597.52 664.554C1597.55 664.416 1597.58 664.276 1597.62 664.132C1597.65 663.992 1597.69 663.848 1597.72 663.701C1596.3 658.228 1592.11 653.329 1588.38 649.231C1581.31 641.469 1573.32 634.396 1565.4 627.383L1565.4 627.382L1565.4 627.38L1565.39 627.375L1565.39 627.369L1565.38 627.364C1563.1 625.343 1560.82 623.327 1558.58 621.301L1557.83 620.627C1537.35 602.162 1516.6 583.454 1499.15 562.015C1486.66 546.68 1475.6 529.971 1467.93 511.682C1419.45 396.035 1465.24 220.913 1526.56 116.508C1531.74 107.64 1537.31 99.0216 1543.25 90.6513C1549.21 82.2814 1555.52 74.1936 1562.19 66.3881C1564.36 63.8827 1567.74 60.8213 1571.35 57.5599C1578.07 51.4809 1585.57 44.7069 1587.4 39.5425C1587.41 39.6592 1587.43 39.7758 1587.44 39.8924L1587.44 39.8995L1587.44 39.9064C1587.46 40.0192 1587.47 40.132 1587.48 40.2453C1587.86 45.2647 1573.33 69.1349 1564.13 84.2576L1564.13 84.2637L1564.12 84.2724C1561.1 89.2434 1558.65 93.2676 1557.5 95.3635C1487.76 222.084 1437.8 384.344 1561.53 497.025C1638.69 567.299 1750.18 596.664 1849.66 618.036C1861.48 620.575 1873.5 622.835 1885.57 625.103L1885.57 625.103L1885.57 625.104L1885.57 625.104L1885.57 625.105C1941.03 635.531 1997.53 646.152 2040.68 685.084C2058.39 701.056 2074.01 721.698 2081.52 744.57C2082.05 746.185 2082.59 748.859 2083.18 751.774L2083.18 751.776C2084.27 757.113 2085.52 763.257 2087.15 765.187C2087.92 762.235 2088.61 759.345 2089.1 756.328C2089.61 742.723 2089.39 728.981 2089.17 715.333L2089.17 715.243L2089.17 715.153C2089.14 713.132 2089.11 711.114 2089.08 709.099C2064.36 656.656 2016.83 633.496 1964.53 614.686C1935.96 604.41 1899.55 594.99 1860.08 584.777L1860.08 584.776C1740.36 553.804 1592.47 515.541 1549.55 424.022C1519.75 360.472 1534.74 277.62 1557.78 214.324C1559.28 210.303 1560.84 206.3 1562.44 202.314C1564.04 198.328 1565.68 194.36 1567.37 190.411C1569.06 186.462 1570.79 182.533 1572.56 178.624C1574.33 174.714 1576.15 170.824 1578.02 166.956C1579.88 163.086 1581.79 159.238 1583.74 155.412C1585.69 151.587 1587.68 147.783 1589.71 144.002C1591.75 140.22 1593.82 136.463 1595.94 132.728C1598.06 128.994 1600.22 125.283 1602.42 121.598C1604.63 117.912 1606.87 114.251 1609.16 110.616C1611.44 106.98 1613.76 103.371 1616.13 99.7878C1618.49 96.2049 1620.9 92.6489 1623.34 89.1201C1625.79 85.5911 1628.27 82.0902 1630.8 78.6171C1633.32 75.1442 1635.88 71.7 1638.48 68.2847C1641.08 64.8693 1643.72 61.4837 1646.4 58.1277C1649.08 54.7718 1651.79 51.4464 1654.54 48.1516C1657.29 44.8567 1660.08 41.5932 1662.91 38.3612C1664.29 36.7518 1667.3 33.5294 1670.97 29.6072L1670.98 29.5957C1680.73 19.1766 1695.09 3.82929 1695.73 0.658203ZM434.47 0.988796C440.493 0.377103 446.781 0.49233 452.978 0.605898C455.453 0.65124 457.913 0.696317 460.336 0.694765C469.679 9.60016 478.166 20.2962 486.136 30.4538C522.981 77.4061 550.011 132.31 559.483 191.582C578.659 311.571 522.571 423.192 449.366 513.967C441.365 523.889 432.548 533.33 423.728 542.774L423.727 542.775C411.988 555.346 400.244 567.921 390.414 581.64C381.746 593.739 375.326 607.94 378.02 623.158C380.221 635.595 388.725 646.885 398.975 653.938C415.748 665.479 436.989 666.877 456.473 663.212C480.309 658.727 503.481 647.587 525.217 637.049C615.237 593.406 702.782 527.445 759.327 443.87C842.545 320.873 815.886 215.97 785.809 97.6168C777.885 66.4359 769.724 34.3214 763.272 0.696378L815.634 0.69204C820.035 15.1004 824.747 29.4538 829.459 43.8105L829.46 43.8125L829.461 43.8143C849.551 105.018 869.66 166.28 865.836 232.1C865.774 236.703 865.643 241.304 865.443 245.904C865.243 250.503 864.975 255.098 864.638 259.69C864.302 264.281 863.896 268.866 863.422 273.445C862.949 278.024 862.407 282.595 861.797 287.157C861.187 291.721 860.509 296.274 859.763 300.816C859.017 305.359 858.204 309.889 857.322 314.408C856.441 318.926 855.493 323.43 854.477 327.919C853.462 332.409 852.38 336.883 851.231 341.341C850.081 345.798 848.866 350.238 847.584 354.659C846.303 359.08 844.955 363.48 843.542 367.861C842.13 372.242 840.651 376.601 839.109 380.937C837.566 385.274 835.958 389.586 834.287 393.874C832.615 398.163 830.88 402.425 829.081 406.661C827.282 410.898 825.42 415.107 823.496 419.287C821.571 423.468 819.585 427.619 817.536 431.74C815.488 435.861 813.378 439.951 811.207 444.009C809.037 448.067 806.806 452.091 804.516 456.083C802.226 460.074 799.876 464.03 797.468 467.951C795.059 471.872 792.592 475.756 790.067 479.603C787.543 483.45 784.961 487.259 782.323 491.029C779.685 494.799 776.991 498.528 774.241 502.217C771.491 505.906 768.688 509.553 765.83 513.158C762.971 516.764 760.06 520.326 757.095 523.844C754.13 527.361 751.113 530.834 748.045 534.262C744.977 537.69 741.858 541.071 738.688 544.406C735.519 547.739 732.301 551.025 729.034 554.264C725.766 557.502 722.451 560.691 719.089 563.829C715.726 566.967 712.318 570.055 708.863 573.092C705.408 576.129 701.909 579.113 698.366 582.045C694.822 584.977 691.235 587.855 687.606 590.68C683.976 593.504 680.305 596.274 676.593 598.988C672.88 601.703 669.128 604.362 665.337 606.964C652.363 615.957 639.072 624.58 625.778 633.206C581.308 662.058 536.8 690.935 504.006 733.741C488.631 753.808 476.211 776.5 469.829 801.083C467.398 810.446 466.394 821.945 465.349 833.905C463.235 858.094 460.957 884.169 446.382 898.27C439.154 905.263 429.525 908.465 419.566 908.113C397.72 907.337 375.942 891.114 361.497 875.58C330.53 842.28 317.656 795.91 310.467 752.066C303.802 711.424 298.95 666.258 308.793 625.928C322.689 568.995 363.173 525.31 402.815 482.535C417.596 466.585 432.26 450.763 445.385 434.426C448.402 430.671 451.353 426.865 454.239 423.009C457.125 419.152 459.944 415.246 462.696 411.291C465.447 407.337 468.13 403.336 470.743 399.289C473.357 395.242 475.9 391.151 478.373 387.016C480.845 382.881 483.246 378.705 485.575 374.487C487.904 370.269 490.159 366.012 492.342 361.716C494.523 357.42 496.631 353.088 498.664 348.719C500.697 344.351 502.654 339.948 504.535 335.512C519.107 300.67 528.166 264.095 529.521 226.268C532.63 139.441 492.289 63.0642 434.47 0.988796ZM86.7243 419.695C81.1016 340.587 63.5922 262.284 1.15352 208.064C0.901534 245.871 0.859366 283.678 1.02702 321.485L1.1284 322.249C25.7693 371.009 28.8772 439.74 31.6499 501.059C32.5237 520.383 33.3642 538.971 34.8349 555.966C53.7821 774.911 116.372 1051.79 316.897 1176.99L347.012 1176.96C333.265 1166.92 319.933 1156.35 307.015 1145.25C148.053 1007.25 100.977 803.865 90.7508 601.457C89.3554 573.838 89.2888 546.195 89.2222 518.559C89.1427 485.575 89.0632 452.601 86.7243 419.695ZM1.27413 447.39C4.80507 476.998 6.83111 506.747 8.85784 536.507C10.9387 567.062 13.0204 597.628 16.7323 628.062C17.5746 635.46 18.4916 642.849 19.4832 650.229C20.4747 657.61 21.5406 664.979 22.6809 672.337C23.8212 679.695 25.0356 687.041 26.3241 694.375C27.6127 701.709 28.9751 709.028 30.4115 716.334C31.8477 723.64 33.3576 730.931 34.9411 738.207C36.5246 745.483 38.1813 752.741 39.9113 759.983C41.6413 767.225 43.4442 774.449 45.32 781.655C47.1958 788.86 49.1442 796.046 51.165 803.212C53.1859 810.378 55.2788 817.523 57.4439 824.647C59.6089 831.77 61.8456 838.871 64.1541 845.95C66.4625 853.028 68.842 860.082 71.2928 867.112C73.7436 874.143 76.2651 881.147 78.8573 888.127C81.4494 895.106 84.1118 902.058 86.8443 908.983C89.5768 915.909 92.379 922.806 95.2507 929.674C98.1224 936.543 101.063 943.382 104.073 950.191C107.083 957 110.161 963.778 113.307 970.524C131.31 1008.66 151.047 1045.38 176.905 1078.81C186.453 1091.12 196.498 1103.02 207.039 1114.5C217.58 1125.97 228.58 1136.99 240.04 1147.55C243.974 1151.14 248.626 1154.86 253.353 1158.64C260.939 1164.71 268.715 1170.94 274.021 1177L271.177 1176.91C225.898 1141.34 185.323 1100.49 152.24 1053.18C133 1025.68 117.65 994.763 103.128 964.552C47.2408 848.296 18.7856 738.205 1.12602 610.92L1.11085 608.917C0.668994 594.231 0.781818 579.47 0.894473 564.732C0.946272 557.955 0.998036 551.183 0.995825 544.426C0.826504 512.079 0.919274 479.734 1.27413 447.39ZM364.282 0.696179L219.006 0.70807C221.477 2.19469 223.941 3.69521 226.396 5.20962C288.048 43.268 351.53 93.838 368.863 167.846C393.442 272.789 331.879 369.629 277.031 455.907C269.752 467.357 262.591 478.621 255.766 489.693C198.423 582.712 166.677 670.269 193.039 781.001C235.008 957.285 404.007 1087.11 549.854 1176.99H777.38C775.225 1175.01 773.096 1173.01 770.992 1170.98C768.887 1168.95 766.808 1166.89 764.755 1164.81C762.702 1162.73 760.676 1160.62 758.675 1158.49C756.675 1156.36 754.701 1154.2 752.754 1152.02C750.808 1149.83 748.889 1147.63 746.997 1145.4C745.105 1143.16 743.242 1140.91 741.406 1138.63C739.571 1136.36 737.764 1134.07 735.986 1131.74C734.208 1129.42 732.459 1127.07 730.739 1124.71C729.019 1122.35 727.33 1119.96 725.67 1117.55C724.01 1115.14 722.38 1112.71 720.78 1110.26C719.18 1107.81 717.612 1105.35 716.074 1102.86C714.536 1100.37 713.029 1097.86 711.553 1095.34C710.078 1092.81 708.635 1090.27 707.222 1087.7C705.81 1085.14 704.43 1082.56 703.083 1079.97C701.735 1077.37 700.42 1074.76 699.138 1072.13C697.856 1069.5 696.606 1066.85 695.389 1064.19C694.049 1061.22 692.753 1058.22 691.503 1055.21C690.252 1052.19 689.046 1049.15 687.885 1046.1C686.723 1043.06 685.608 1039.99 684.538 1036.91C683.468 1033.82 682.444 1030.72 681.466 1027.6C680.487 1024.49 679.556 1021.36 678.67 1018.22C677.785 1015.08 676.947 1011.92 676.156 1008.76C675.363 1005.59 674.619 1002.41 673.922 999.219C673.225 996.029 672.575 992.829 671.972 989.62C671.37 986.411 670.815 983.195 670.308 979.97C669.802 976.744 669.343 973.512 668.931 970.273C668.52 967.033 668.158 963.788 667.843 960.539C667.528 957.288 667.262 954.034 667.044 950.777C666.825 947.519 666.655 944.259 666.534 940.996C666.412 937.733 666.339 934.469 666.315 931.204C666.291 927.939 666.315 924.674 666.387 921.41C666.459 918.145 666.579 914.883 666.749 911.622C666.94 907.493 667.211 903.368 667.56 899.249C667.909 895.13 668.337 891.019 668.843 886.917C669.35 882.814 669.935 878.722 670.597 874.642C671.261 870.562 672.002 866.496 672.821 862.444C673.639 858.393 674.535 854.358 675.508 850.34C676.48 846.323 677.53 842.326 678.656 838.349C679.782 834.372 680.983 830.418 682.26 826.487C683.537 822.556 684.889 818.651 686.315 814.771C708.715 754.411 749.927 709.35 791.552 663.835C811.883 641.605 832.313 619.266 850.698 594.984C854.716 589.622 858.638 584.189 862.463 578.686C866.288 573.183 870.013 567.614 873.64 561.978C877.267 556.342 880.792 550.643 884.215 544.881C887.639 539.119 890.959 533.298 894.175 527.418C897.392 521.538 900.503 515.602 903.508 509.61C906.512 503.618 909.41 497.575 912.199 491.481C914.989 485.385 917.67 479.242 920.241 473.052C922.811 466.861 925.271 460.626 927.62 454.347C980.291 314.683 982.451 137.944 920.52 0.69702L883.362 0.69104C888.267 14.603 892.782 28.6407 896.909 42.804C901.035 56.9673 904.765 71.2345 908.1 85.6055C911.434 99.9762 914.368 114.429 916.9 128.964C919.433 143.497 921.561 158.091 923.284 172.744C936.058 286.938 918.609 404.467 854.691 501.885C837.217 528.516 816.218 552.694 794.388 575.803C784.312 586.47 774.552 596.576 765.096 606.367C714.24 659.027 672.174 702.584 636.986 775.337C633.133 783.259 629.487 791.275 626.048 799.385C622.609 807.495 619.38 815.689 616.363 823.966C613.347 832.244 610.545 840.594 607.96 849.016C605.374 857.439 603.007 865.922 600.858 874.467C597.553 887.53 595.166 902.895 592.677 918.917C586.944 955.824 580.67 996.216 561.377 1019.98C560.751 1020.75 560.107 1021.51 559.442 1022.25C558.779 1022.99 558.097 1023.71 557.397 1024.41C556.697 1025.12 555.979 1025.81 555.245 1026.48C554.51 1027.15 553.76 1027.8 552.992 1028.43C552.225 1029.07 551.442 1029.68 550.645 1030.28C549.846 1030.86 549.034 1031.43 548.207 1031.99C547.38 1032.54 546.54 1033.07 545.687 1033.58C544.833 1034.09 543.968 1034.58 543.09 1035.04C542.212 1035.51 541.323 1035.95 540.423 1036.38C539.523 1036.8 538.613 1037.19 537.693 1037.57C536.773 1037.94 535.844 1038.29 534.906 1038.62C533.968 1038.95 533.023 1039.25 532.07 1039.53C531.117 1039.82 530.157 1040.08 529.192 1040.3C528.225 1040.54 527.254 1040.75 526.277 1040.93C525.301 1041.11 524.321 1041.27 523.336 1041.4C522.352 1041.54 521.365 1041.65 520.375 1041.73C481.65 1045.19 442.242 1013.61 414.626 990.091C410.932 986.916 407.289 983.683 403.698 980.392C400.106 977.101 396.568 973.753 393.083 970.349C389.598 966.945 386.168 963.486 382.794 959.972C379.419 956.458 376.101 952.892 372.84 949.272C369.579 945.653 366.376 941.982 363.232 938.26C360.087 934.538 357.003 930.767 353.979 926.946C350.955 923.126 347.992 919.258 345.091 915.343C342.189 911.428 339.351 907.468 336.576 903.463C333.801 899.457 331.09 895.408 328.444 891.315C325.798 887.224 323.217 883.09 320.703 878.915C318.188 874.741 315.741 870.528 313.361 866.275C310.98 862.022 308.668 857.732 306.423 853.406C304.179 849.079 302.005 844.717 299.9 840.322C297.795 835.926 295.76 831.497 293.796 827.036C291.832 822.575 289.939 818.084 288.118 813.562C286.297 809.041 284.548 804.492 282.872 799.915C263.851 747.848 251.353 687.455 260.004 632.179C270.748 563.527 314.279 502.229 358.57 439.862C397.347 385.258 436.707 329.833 455.158 267.932C463.907 238.578 468.303 208.218 465.774 177.584C459.852 105.863 417.643 46.0661 364.282 0.696179Z" fill="#9D9996" fill-opacity="0.2"/>
</svg>