<svg width="981" height="80" viewBox="0 0 981 80" fill="none" xmlns="http://www.w3.org/2000/svg">
<path d="M618.52 -49.9468C613.234 -50.0069 606.999 -50.0776 603.141 -49.7789C604.881 -48.2104 605.819 -41.3944 606.395 -37.2115L606.395 -37.2088L606.396 -37.2043C606.544 -36.1288 606.668 -35.2279 606.776 -34.6359C606.914 -33.8747 607.05 -33.1094 607.188 -32.3405C610.237 -15.2661 613.604 3.58218 634.447 19.299C637.857 21.8706 645.146 26.9171 653.271 28.1957C654.144 28.333 654.971 28.3764 655.934 28.3793C657.375 28.1797 658.122 28.0239 658.719 27.5225C659.982 26.4634 660.508 23.6525 658.921 22.6093C658.87 22.5769 658.816 22.5453 658.761 22.5138C658.734 22.4983 658.707 22.4828 658.681 22.4673C659.646 21.7803 658.317 19.3626 657.524 17.9196L657.523 17.9174L657.522 17.9169C657.339 17.5836 657.184 17.3025 657.094 17.107C654.929 12.4239 653.393 7.86146 652.637 3.12616C652.217 0.455986 651.986 -2.21593 651.942 -4.8896C651.898 -7.56327 652.042 -10.2359 652.374 -12.9074C652.703 -15.5789 653.219 -18.2465 653.924 -20.9103C654.625 -23.574 655.514 -26.2311 656.591 -28.8814C657.662 -31.4978 658.966 -34.1017 660.503 -36.6931C662.038 -39.2845 663.802 -41.859 665.796 -44.4166C666.013 -44.6857 666.401 -45.0921 666.854 -45.5665C668.263 -47.043 670.301 -49.1791 669.779 -49.8916L623.805 -49.9039C622.283 -49.9041 620.466 -49.9247 618.52 -49.9468Z" fill="white" fill-opacity="0.12"/>
<path d="M979.533 7.3306L980.223 7.2981C980.561 6.73845 980.538 6.62645 979.974 6.08636C979.932 6.06602 979.89 6.04523 979.843 6.02535C977.944 5.20098 971.765 3.84519 966.832 2.76299L966.831 2.76257L966.828 2.76209L966.826 2.76162L966.822 2.76077L966.814 2.75902L966.81 2.7581C964.747 2.30555 962.904 1.90113 961.686 1.60385C934.734 -4.97017 906.724 -13.0704 911.12 -25.1299C914.06 -33.1908 928.854 -40.8052 946.63 -46.2882C947.313 -46.4988 948.501 -46.8186 949.868 -47.1867C953.276 -48.1042 957.798 -49.3215 958.385 -49.8924C958.072 -49.8946 957.743 -49.8986 957.405 -49.9027C955.935 -49.9207 954.285 -49.9408 952.979 -49.825C942.868 -48.9292 922.401 -43.5705 914.835 -41.1871C901.149 -36.877 890.62 -31.357 890.253 -24.9758C889.864 -18.0839 901.022 -11.6151 915.262 -6.78517C932.63 -0.894661 956.999 3.85881 979.533 7.3306Z" fill="white" fill-opacity="0.12"/>
<path d="M980.604 -45.3958C958.037 -41.4946 937.227 -35.7117 929.45 -27.4591C926.05 -23.8519 925.04 -19.6139 930.685 -16.1888C936.504 -12.6629 947.996 -10.7914 959.277 -9.72165C959.981 -9.65487 961.942 -9.51399 964.395 -9.33781C970.406 -8.906 979.37 -8.2621 980.007 -7.9772C980.037 -7.92367 980.071 -7.87053 980.105 -7.81762C980.239 -7.60805 980.371 -7.40228 980.195 -7.19171L979.571 -7.11623C961.546 -8.03651 940.524 -9.13441 928.708 -14.2086C921.447 -17.3273 919.991 -21.2509 921.602 -25.0444C924.942 -32.9073 940.665 -39.6071 959.564 -44.2804C962.231 -44.9403 977.284 -48.456 980.064 -48.3288C980.891 -47.6438 980.767 -46.7045 980.661 -45.8962C980.638 -45.722 980.616 -45.5539 980.604 -45.3958Z" fill="white" fill-opacity="0.12"/>
<path d="M425.738 85.23C426.882 85.5326 428.489 86.9623 429.908 88.2243L429.911 88.227L429.912 88.2276C430.771 88.9922 431.561 89.6949 432.137 90.0473C442.333 96.2896 457.358 101.361 475.481 105.172C523.47 115.261 585.973 115.232 642.792 115.205C650.599 115.202 658.298 115.198 665.838 115.221L670.045 115.233C709.191 115.349 748.691 115.466 787.565 117.015C812.626 118.014 839.935 119.543 862.3 123.539C866.78 124.339 880.104 127.064 881.494 128.609L880.053 128.457C878.089 127.072 859.43 124.488 855.077 123.92C802.791 117.097 727.723 116.231 671.455 116.401C660.259 116.435 649.058 116.59 637.858 116.744L637.856 116.744C624.932 116.922 612.011 117.101 599.106 117.094C552.391 117.069 500.49 114.566 462.618 104.92C443.416 100.029 428.834 93.2735 425.738 85.23Z" fill="white" fill-opacity="0.12"/>
<path d="M643.413 39.0922C644.689 39.2025 650.79 41.426 655.12 43.0042C656.976 43.6807 658.507 44.2386 659.193 44.4608C663.354 45.8163 667.727 47.0945 672.31 48.2955C688.983 52.6757 708.304 55.9577 729.349 57.3244C743.128 58.2191 774.059 58.7323 786.035 56.0232C787.51 55.689 788.853 55.2215 789.088 54.6125C790 52.2133 772.347 49.8934 762.285 48.5712C760.019 48.2733 758.137 48.026 756.94 47.84C749.558 46.6921 734.322 44.1537 729.151 42.161C732.434 42.4678 736.076 43.1872 739.668 43.8968L739.67 43.8973C742.177 44.3925 744.659 44.8829 746.979 45.225C750.423 45.7328 754.003 46.1489 757.577 46.5642C761.474 47.0171 765.365 47.4692 769.062 48.0385C771.317 48.1715 773.609 48.3955 775.877 48.6171C777.048 48.7315 778.212 48.8453 779.361 48.9456C785.269 49.4625 791.217 49.9259 797.203 50.336C800.74 50.5789 804.383 50.7397 808.03 50.9006C813.028 51.121 818.032 51.3418 822.775 51.7747C825.757 52.0466 829.04 52.4317 831.351 53.1297C832.638 53.5193 833.723 54.0567 833.704 54.6515C833.68 55.3805 832.069 55.9938 830.482 56.4488C827.309 57.3586 823.27 58.0884 819.583 58.7547L819.445 58.7796C800.021 62.2909 777.985 63.6415 755.949 63.1105C718.674 62.2124 685.582 55.6527 661.109 46.6171C657.695 45.3558 654.309 44.0524 651.308 42.6806C650.474 42.2992 649.666 41.903 648.855 41.505L648.853 41.5041C647.22 40.703 645.572 39.895 643.671 39.1871L643.413 39.0922Z" fill="white" fill-opacity="0.12"/>
<path d="M321.858 50.2925C341.761 45.4409 370.084 38.5374 372.387 33.6382C361.19 38.7603 350.654 40.8493 336.126 43.7298L336.114 43.7322C333.887 44.1738 331.565 44.6341 329.134 45.1267C311.351 48.7291 293.159 52.7011 279.94 58.0842C265.732 63.87 257.321 70.7508 248.944 77.6037L248.943 77.6042C245.729 80.2338 242.519 82.8593 238.989 85.4172L238.508 85.7661C234.286 88.8292 229.738 92.129 222.801 94.6105C218.679 96.0851 213.574 97.2343 207.46 97.5653C198.216 98.0658 189.377 96.6848 182.109 94.9335C177.223 93.7562 172.938 92.3474 168.666 90.9427L168.054 90.7414C170.014 91.9011 172.664 92.9691 175.315 93.9674C184.52 97.4812 197.87 102.165 212.976 102.519C219.427 102.67 225.204 101.854 230.016 100.48C245.867 95.9531 257.03 85.7392 266.002 77.5309C268.568 75.1824 270.956 72.998 273.222 71.158C278.304 67.0318 284.086 62.9603 292.111 59.3511C296.45 57.3998 301.215 55.657 306.815 54.0879C310.34 53.0998 315.694 51.795 321.853 50.2935L321.858 50.2925Z" fill="white" fill-opacity="0.12"/>
<path d="M980.073 -12.4018L979.627 -12.3395C970.201 -13.935 961.395 -16.692 956.163 -19.7219C951.298 -22.5402 948.133 -26.3872 950.88 -29.5702C953.74 -32.8812 961.986 -35.3846 969.516 -37.6707C970.023 -37.8244 970.525 -37.9771 971.023 -38.1289C971.541 -38.2871 972.074 -38.4542 972.618 -38.6252C974.913 -39.3456 977.426 -40.1344 980.003 -40.6078C980.618 -40.1095 980.909 -39.7524 980.256 -39.2403C980.219 -39.2122 980.18 -39.1845 980.142 -39.1568C980.108 -39.1321 980.073 -39.1075 980.04 -39.0828L979.996 -39.0564L979.964 -39.0372L979.928 -39.0159C978.929 -38.4605 976.797 -37.9327 974.998 -37.4871L974.996 -37.4865L974.978 -37.4823C974.524 -37.3699 974.092 -37.2627 973.705 -37.1617C972.782 -36.9207 971.832 -36.6839 970.878 -36.446C968.718 -35.9077 966.539 -35.3645 964.617 -34.7576C955.863 -31.9914 955.492 -28.4459 958.117 -24.7981C960.339 -21.7142 965.19 -18.4035 972.089 -16.1587C972.84 -15.9144 973.773 -15.6498 974.746 -15.3739C976.715 -14.8151 978.851 -14.2092 979.979 -13.6298C980.557 -13.1284 980.716 -12.9185 980.073 -12.4018Z" fill="white" fill-opacity="0.12"/>
<path d="M920.085 -49.8937L888.708 -49.894L888.671 -49.8731C888.646 -49.8592 888.621 -49.8452 888.596 -49.8316C887.752 -49.3961 881.462 -47.7111 876.566 -46.3999L876.562 -46.3987L876.532 -46.3908L876.528 -46.3897C874.163 -45.756 872.128 -45.2109 871.2 -44.9383C843.979 -36.9377 826.673 -28.1435 834.159 -15.7325C839.682 -6.57536 858.073 1.06515 881.415 6.18094C896.411 9.46746 913.152 11.6447 929.877 13.82C938.68 14.965 947.479 16.1094 956.018 17.4148C962.142 18.3505 968.182 19.375 973.878 20.5669C974.271 20.649 974.804 20.7804 975.402 20.9277C976.941 21.3067 978.907 21.7913 980.017 21.8133L980.266 21.7808C981.197 20.7028 980.964 19.2131 980.757 17.8859C980.683 17.4129 980.613 16.9606 980.599 16.5549C979.281 16.3538 977.961 16.1534 976.642 15.953C967.836 14.6157 959.028 13.278 950.565 11.7173C921.471 6.35225 895.579 -1.46233 883.904 -11.9441C875.145 -19.8078 875.384 -28.1247 886.2 -35.7564C887.177 -36.4349 888.218 -37.1026 889.323 -37.7593C890.432 -38.416 891.603 -39.0604 892.836 -39.6925C894.067 -40.3247 895.36 -40.9432 896.716 -41.5482C898.068 -42.1532 899.479 -42.7434 900.947 -43.3187C904.942 -44.9011 908.701 -46.0626 912.607 -47.2695L912.609 -47.2701C914.622 -47.892 916.674 -48.5261 918.817 -49.236C919.399 -49.429 919.879 -49.6272 920.085 -49.8937Z" fill="white" fill-opacity="0.12"/>
<path d="M0.0964882 -47.3584C41.3692 -44.034 112.518 -37.7237 135.765 -25.1384C144.739 -20.28 143.684 -15.412 139.636 -10.0753C133.993 -2.63431 124.706 4.54746 115.555 11.6244C114.233 12.6463 112.915 13.666 111.61 14.684C110.027 15.9198 108.421 17.1598 106.81 18.404L106.809 18.4053C95.2319 27.3459 83.3671 36.5091 77.2938 45.9754C74.7549 49.9324 74.0646 53.822 74.158 57.8528C74.467 71.1843 86.25 83.8552 107.093 95.2501C131.708 108.708 168.813 121.042 205.459 130.998H199.767C197.426 130.389 195.078 129.784 192.732 129.18L192.726 129.179L192.718 129.176C185.805 127.396 178.91 125.62 172.232 123.73C138.986 114.32 108.762 103.206 87.9801 90.4464C45.2032 64.1833 59.9639 44.5243 89.0476 17.8808C91.026 16.0684 93.0646 14.2599 95.1044 12.4505L95.105 12.4499C100.039 8.07321 104.979 3.69063 109.089 -0.766644C115.796 -8.04143 120.918 -16.102 109.34 -23.1511C91.9177 -33.7583 34.2924 -41.1174 0.0985485 -44.4829L0.0964882 -47.3584Z" fill="white" fill-opacity="0.12"/>
<path d="M826.457 -49.8964L850.47 -49.896C850.24 -49.6749 850.071 -49.5615 849.545 -49.3974C846.537 -48.4643 843.482 -47.565 840.435 -46.6677C834.78 -45.003 829.149 -43.3451 823.879 -41.4907C822.536 -41.0112 821.219 -40.5236 819.929 -40.0279C818.643 -39.5321 817.384 -39.0287 816.153 -38.5174C814.923 -38.0062 813.722 -37.4875 812.551 -36.9614C811.38 -36.4354 810.241 -35.9023 809.132 -35.3622C808.021 -34.822 806.942 -34.2752 805.896 -33.7218C804.847 -33.1684 803.833 -32.6087 802.853 -32.0428C801.87 -31.4768 800.92 -30.905 800.002 -30.3273C799.085 -29.7497 798.2 -29.1665 797.349 -28.578C785.133 -19.9837 780.968 -10.2573 791.093 -1.20892C796.564 3.67688 805.859 7.99517 817.14 11.6252C849.789 22.1307 893.593 26.0919 936.899 29.2311L966.365 31.3556C967.475 31.4372 968.677 31.5126 969.918 31.5905L969.92 31.5906C973.462 31.8129 977.319 32.0548 980.233 32.5168C980.323 32.5316 980.416 32.5476 980.506 32.563C980.905 35.7025 981.36 40.7685 980.477 43.8045L980.247 43.8397C979.019 43.7969 974.076 42.8529 970.158 42.1048C968.277 41.7456 966.633 41.4316 965.749 41.2841C960.724 40.4464 955.624 39.6623 950.448 38.9318C945.273 38.2013 940.03 37.5259 934.72 36.9055C916.694 34.7699 898.214 33.1109 879.732 31.4519C864.075 30.0464 848.416 28.6407 833.032 26.9451C817.792 25.2654 802.106 23.3835 788.482 20.5532C767.705 16.2382 752.723 9.83852 747.332 1.91056C735.802 -15.0383 768.301 -31.7729 803.586 -43.1998C805.015 -43.6632 811.055 -45.3866 816.537 -46.9508L816.546 -46.9533L816.548 -46.9539C821.544 -48.3791 826.073 -49.6713 826.223 -49.7561C826.299 -49.798 826.369 -49.8411 826.437 -49.8837L826.457 -49.8964Z" fill="white" fill-opacity="0.12"/>
<path d="M450.929 -49.8954L444.018 -49.8937C445.531 -48.4841 446.954 -47.0648 448.288 -45.6357C449.62 -44.2067 450.862 -42.7691 452.012 -41.3231C453.163 -39.877 454.221 -38.4238 455.186 -36.9633C456.152 -35.5027 457.024 -34.0363 457.803 -32.5638C470.598 -8.28269 459.772 17.9162 421.541 39.3359C412.53 44.3848 401.921 49.078 391.311 53.7712L391.307 53.7732C386.246 56.0123 381.184 58.2514 376.296 60.5291C352.961 71.4035 334.138 83.1655 341.488 96.8986C349.353 111.596 380.782 122.718 416.785 130.998L527.627 130.994C524.711 130.524 521.12 130.242 517.679 129.972C516.265 129.861 514.876 129.751 513.57 129.632C505.865 128.938 498.219 128.18 490.633 127.36C452.255 123.182 394.575 115.147 368.841 104.693C333.915 90.5058 365.217 73.1438 389.542 59.6516C391.003 58.8411 392.439 58.0445 393.834 57.2634C394.785 56.7309 395.737 56.1985 396.689 55.666L396.741 55.6374C408.371 49.1341 420.02 42.6199 430.086 35.8388C447.508 24.1014 459.559 11.8136 463.816 -1.20153C464.702 1.24085 461.922 6.11534 460.18 9.16967L460.175 9.17766C459.977 9.52589 459.792 9.85036 459.627 10.1448C459.02 11.2768 458.359 12.4055 457.646 13.5309C456.933 14.6563 456.166 15.7777 455.348 16.8953C454.529 18.0129 453.657 19.1261 452.734 20.2349C451.81 21.3437 450.834 22.4475 449.807 23.5465C448.779 24.6454 447.7 25.7388 446.57 26.8268C445.44 27.9148 444.259 28.9968 443.027 30.0729C441.794 31.1489 440.512 32.2185 439.179 33.2816C437.846 34.3446 436.464 35.4007 435.032 36.4498C430.821 39.5261 426.052 42.5059 421.28 45.4877C419.623 46.5231 417.966 47.5587 416.331 48.5987C399.868 59.0729 380.456 71.6841 377.748 83.5997C376.228 90.2877 381.216 96.4022 394.721 101.52C429.926 114.86 516.768 121.483 567.622 124.658C570.143 124.815 572.69 124.979 575.255 125.144L575.26 125.145C587.409 125.926 599.961 126.734 612.097 127.029C610.198 126.66 600.651 126.102 593.85 125.704C591.182 125.548 588.937 125.417 587.741 125.331C579.31 124.727 570.912 124.077 562.549 123.379C529.594 120.591 496.578 116.891 466.912 111.348C443.698 107.01 421.808 101.342 408.023 93.7141C401.878 90.3139 397.175 86.409 395.629 82.4727C391.566 72.1337 406.988 59.9268 420.521 50.6926C422.398 49.4116 424.367 48.1439 426.336 46.8762C429.064 45.1196 431.792 43.3628 434.278 41.5702C437.801 38.9947 441.021 36.3792 443.939 33.7236C446.856 31.0679 449.463 28.3798 451.759 25.6593C452.401 24.8908 453.022 24.1206 453.624 23.3487C454.225 22.5767 454.807 21.8031 455.369 21.028C455.931 20.2529 456.472 19.4762 456.994 18.698C457.515 17.9198 458.017 17.1403 458.498 16.3594C458.98 15.5785 459.441 14.7962 459.882 14.0128C460.323 13.2292 460.744 12.4444 461.144 11.6586C461.545 10.8727 461.925 10.0859 462.285 9.29795C462.645 8.50993 462.985 7.72105 463.304 6.9313C463.623 6.14144 463.922 5.35076 464.201 4.55926C464.479 3.76776 464.737 2.97554 464.974 2.1826C465.212 1.38966 465.429 0.596104 465.625 -0.198071C465.822 -0.992237 465.998 -1.78687 466.154 -2.58197C466.309 -3.37706 466.445 -4.17257 466.559 -4.96849C466.674 -5.7643 466.768 -6.56042 466.841 -7.35685C466.914 -8.15318 466.967 -8.94972 467 -9.74646C467.032 -10.5431 467.044 -11.3398 467.035 -12.1367C467.026 -12.9334 466.997 -13.73 466.947 -14.5266C466.897 -15.3232 466.827 -16.1196 466.736 -16.9157C466.645 -17.7119 466.533 -18.5079 466.401 -19.3035C466.27 -20.099 466.117 -20.8941 465.944 -21.6889C465.771 -22.4836 465.577 -23.2778 465.363 -24.0714C465.149 -24.8651 464.915 -25.6581 464.659 -26.4506C464.405 -27.2429 464.129 -28.0344 463.833 -28.8252C463.538 -29.6161 463.222 -30.4061 462.885 -31.1951C462.548 -31.9841 462.192 -32.7722 461.814 -33.5593C461.437 -34.3464 461.039 -35.1324 460.621 -35.9173C460.204 -36.7022 459.766 -37.4858 459.307 -38.2683C458.849 -39.0507 458.371 -39.8319 457.872 -40.6116C457.374 -41.3914 456.855 -42.1698 456.316 -42.9467C455.778 -43.7236 455.219 -44.499 454.64 -45.2728C454.061 -46.0466 453.463 -46.8188 452.844 -47.5892C452.225 -48.3597 451.587 -49.1284 450.929 -49.8954Z" fill="white" fill-opacity="0.12"/>
<path d="M457.125 -49.8944L469.042 -49.8947C490.483 -32.8788 496.095 -13.1152 486.57 4.96596C482.972 11.7992 477.931 18.5574 472.89 25.3148L472.89 25.3154C469.24 30.2077 465.591 35.0999 462.49 40.0195C456.183 50.0252 451.13 60.5846 454.161 70.8211C456.779 79.6589 466.047 88.0747 486.392 94.1793C538.822 109.909 650.267 106.689 727.082 104.47C737.24 104.177 746.792 103.901 755.522 103.689C792.657 102.785 830.323 102.227 867.396 103.691C899.412 104.957 932.447 107.705 959.898 113.415C967.248 114.945 973.856 116.726 980.567 118.536C980.583 118.996 980.65 119.626 980.726 120.344L980.728 120.363L980.728 120.365C980.984 122.771 981.344 126.154 980.28 127.466C979.522 127.46 978.735 127.131 978.102 126.867L978.095 126.864C978.006 126.827 977.92 126.791 977.837 126.757L977.771 126.731C977.718 126.71 977.667 126.69 977.617 126.671C948.354 115.829 904.757 111.08 862.193 109.119C830.44 107.657 798.002 107.782 766.061 108.375C751.357 108.648 735.184 109.099 718.15 109.575L718.146 109.575L718.144 109.575C645.815 111.593 557.972 114.045 501.252 105.097C415.914 91.6341 441.54 56.8066 462.757 27.9713C469.551 18.7367 475.894 10.1164 477.995 3.00954C478.295 1.89372 478.551 0.776764 478.76 -0.341324C478.967 -1.4594 479.128 -2.57821 479.244 -3.69773C479.36 -4.81725 479.43 -5.93713 479.455 -7.05737C479.477 -8.17751 479.454 -9.29755 479.385 -10.4175C479.316 -11.5374 479.2 -12.6568 479.037 -13.7757C478.878 -14.8946 478.669 -16.0127 478.413 -17.1298C478.159 -18.2469 477.86 -19.3626 477.516 -20.477C477.168 -21.5914 476.775 -22.704 476.337 -23.8149C475.899 -24.9259 475.415 -26.0347 474.886 -27.1413C474.357 -28.2479 473.78 -29.3519 473.157 -30.4535C472.538 -31.5549 471.871 -32.6535 471.157 -33.7491C470.446 -34.8446 469.69 -35.9369 468.888 -37.0257C468.086 -38.1145 467.239 -39.1996 466.347 -40.2809C465.455 -41.3622 464.519 -42.4394 463.538 -43.5124C462.557 -44.5854 461.532 -45.6538 460.463 -46.7177C459.394 -47.7815 458.281 -48.8405 457.125 -49.8944Z" fill="white" fill-opacity="0.12"/>
<path d="M795.87 -49.8988L694.529 -49.8941C694.409 -49.4228 693.498 -48.9246 692.675 -48.4743C692.438 -48.3449 692.209 -48.2195 692.008 -48.0999C689.337 -46.5237 686.884 -44.912 684.648 -43.2648C682.413 -41.6175 680.403 -39.9412 678.618 -38.2356C670.864 -30.7175 667.097 -22.7007 665.031 -14.818C664.367 -12.438 663.893 -10.0539 663.608 -7.6657C663.323 -5.27754 663.229 -2.88861 663.326 -0.498901C663.42 1.8909 663.705 4.27824 664.181 6.66312C664.66 9.048 665.327 11.4272 666.182 13.8006C666.976 15.9821 667.983 18.1695 668.991 20.3594C670.654 23.9705 672.319 27.5886 673.039 31.1969C673.054 31.274 673.071 31.3549 673.088 31.4389C673.359 32.7418 673.791 34.8174 671.479 35.8026C671.32 35.8703 671.132 35.9322 670.939 35.9898C670.291 36.183 669.216 36.2224 668.384 36.2021C660.452 36.0078 648.368 32.2188 643.587 30.2527C610.257 16.54 602.466 -15.1676 597.673 -34.6728L597.672 -34.6745L597.651 -34.7626C597.288 -36.239 596.942 -37.6449 596.604 -38.9672C596.498 -39.3776 596.377 -40.0355 596.23 -40.8314L596.23 -40.8344C595.671 -43.8673 594.743 -48.9017 592.917 -49.8942L570.426 -49.8912L570.472 -49.8787C570.527 -49.8639 570.581 -49.8493 570.632 -49.8337C573.68 -48.9137 578.795 -44.023 580.406 -42.4771C581.962 -40.9791 583.415 -39.4705 584.764 -37.9513C586.113 -36.4321 587.36 -34.9037 588.502 -33.3662C589.645 -31.8288 590.683 -30.2838 591.616 -28.7311C592.549 -27.1785 593.376 -25.6198 594.096 -24.0551C596.197 -19.6766 597.736 -15.2742 599.274 -10.8718L599.275 -10.8701L599.276 -10.8671C600.805 -6.49331 602.334 -2.11945 604.414 2.23114C609.402 12.6665 620.067 26.6303 637.416 35.6293C641.91 37.9602 648.11 40.3663 654.14 42.2896C662.631 44.9978 673.377 47.1634 683.962 48.8672C701.133 51.6316 720.153 53.5181 739.437 53.4058L739.845 53.4035C742.761 53.388 746.985 53.3656 749.074 52.6726C749.529 52.5222 749.629 52.3768 749.754 52.1955C749.783 52.1539 749.813 52.1104 749.849 52.0645C749.182 51.2229 747.214 50.4694 745.463 49.8392C742.139 48.6454 738.389 47.5575 734.67 46.4789C733.596 46.1673 732.525 45.8565 731.467 45.5442L731.115 45.4403C721.498 42.6008 711.755 39.724 703.561 36.4271C697.7 34.069 692.505 31.4994 688.903 28.6868C666.139 10.9025 687.64 -16.0278 716.434 -32.0833C718.867 -33.447 721.479 -34.7724 724.272 -36.0596C727.068 -37.3467 730.032 -38.5904 733.163 -39.7908C734.182 -40.1761 735.772 -40.6468 737.466 -41.1484C740.623 -42.0832 744.14 -43.1249 745.002 -43.9191C745.005 -43.9087 745.008 -43.8983 745.012 -43.8878L745.021 -43.8653C745.028 -43.8473 745.035 -43.8292 745.04 -43.811C745.216 -43.0392 738.396 -39.3684 734.076 -37.0428C732.653 -36.2774 731.502 -35.6575 730.96 -35.3349C698.216 -15.8477 674.757 9.10479 732.853 26.4329C769.086 37.2398 821.437 41.7555 868.148 45.042C873.699 45.4326 879.343 45.7802 885.01 46.1291C911.052 47.7325 937.579 49.3657 957.841 55.3528C966.158 57.8089 973.494 60.9833 977.016 64.5006C977.265 64.749 977.521 65.1602 977.799 65.6085C978.308 66.4293 978.895 67.3742 979.66 67.6711C980.022 67.2171 980.346 66.7727 980.576 66.3087C980.817 64.2169 980.714 62.1039 980.612 60.0053V60.0031C980.597 59.6836 980.581 59.3645 980.567 59.0458C968.962 50.981 946.644 47.4196 922.087 44.5269C908.67 42.9466 891.573 41.498 873.038 39.9274C816.826 35.1644 747.384 29.2803 727.231 15.2065C713.235 5.43366 720.275 -7.30739 731.091 -17.0411C731.799 -17.6595 732.529 -18.2751 733.28 -18.888C734.031 -19.501 734.803 -20.1111 735.595 -20.7184C736.387 -21.3257 737.2 -21.9299 738.033 -22.5311C738.866 -23.1324 739.72 -23.7305 740.597 -24.3254C741.471 -24.9205 742.366 -25.5122 743.283 -26.1005C744.198 -26.6889 745.132 -27.2738 746.087 -27.8553C747.042 -28.4368 748.017 -29.0147 749.013 -29.589C750.009 -30.1633 751.023 -30.7338 752.056 -31.3006C753.09 -31.8674 754.143 -32.4303 755.217 -32.9894C756.288 -33.5485 757.379 -34.1036 758.49 -34.6545C759.602 -35.2055 760.731 -35.7524 761.877 -36.295C763.026 -36.8377 764.194 -37.3761 765.38 -37.9102C766.564 -38.4443 767.766 -38.9739 768.987 -39.4991C770.208 -40.0243 771.448 -40.545 772.707 -41.0611C773.962 -41.5771 775.236 -42.0885 776.53 -42.5952C777.82 -43.1019 779.128 -43.6038 780.456 -44.1008C781.105 -44.3485 782.523 -44.8448 784.248 -45.4488L784.249 -45.4493C788.826 -47.0515 795.566 -49.4112 795.87 -49.8988Z" fill="white" fill-opacity="0.12"/>
<path d="M203.636 -49.8479C206.464 -49.942 209.417 -49.9243 212.327 -49.9068C213.489 -49.8999 214.644 -49.8929 215.781 -49.8932C220.169 -48.5237 224.154 -46.8788 227.896 -45.3168C245.197 -38.0964 257.889 -29.6532 262.337 -20.5383C271.341 -2.08638 245.005 15.0788 210.631 29.0382C206.874 30.5639 202.734 32.0157 198.593 33.468C193.08 35.4012 187.565 37.3354 182.949 39.4451C178.879 41.3057 175.865 43.4895 177.129 45.8298C178.163 47.7423 182.156 49.4784 186.969 50.5631C194.845 52.3379 204.819 52.5529 213.968 51.9893C225.16 51.2996 236.04 49.5864 246.247 47.9658C288.516 41.2544 329.623 31.1109 356.175 18.2587C395.25 -0.655895 382.732 -16.7879 368.609 -34.9884C364.889 -39.7834 361.056 -44.722 358.027 -49.8929L382.614 -49.8936C384.681 -47.6777 386.893 -45.4702 389.106 -43.2622C398.539 -33.8503 407.982 -24.4294 406.186 -14.3075C406.157 -13.5996 406.096 -12.892 406.002 -12.1847C405.908 -11.4774 405.782 -10.7708 405.624 -10.0647C405.466 -9.35865 405.276 -8.65357 405.053 -7.94946C404.831 -7.24526 404.576 -6.54234 404.29 -5.8407C404.003 -5.13895 403.685 -4.4388 403.335 -3.74024C402.985 -3.04168 402.603 -2.34497 402.189 -1.65011C401.775 -0.955353 401.33 -0.262753 400.853 0.427696C400.376 1.11814 399.868 1.80612 399.328 2.49164C398.789 3.17715 398.218 3.85984 397.616 4.53971C397.014 5.21958 396.382 5.89632 395.718 6.56992C395.055 7.24363 394.361 7.91394 393.636 8.58087C392.912 9.2477 392.157 9.91082 391.372 10.5703C390.587 11.2298 389.772 11.8853 388.928 12.5367C388.083 13.1882 387.209 13.8354 386.305 14.4783C385.402 15.1212 384.469 15.7595 383.507 16.3933C382.545 17.027 381.555 17.656 380.535 18.2801C379.516 18.9041 378.469 19.523 377.393 20.1368C376.318 20.7506 375.215 21.3589 374.084 21.9618C372.952 22.5649 371.794 23.1622 370.609 23.7537C369.423 24.3454 368.211 24.9311 366.972 25.5108C365.734 26.0905 364.469 26.6641 363.178 27.2314C361.886 27.7987 360.57 28.3595 359.228 28.9139C357.886 29.4684 356.518 30.0161 355.126 30.5571C353.734 31.098 352.318 31.6321 350.877 32.1592C349.436 32.6864 347.972 33.2063 346.484 33.7191C344.995 34.2318 343.484 34.7371 341.95 35.2351C340.416 35.7331 338.859 36.2234 337.28 36.7061C335.701 37.1887 334.101 37.6635 332.479 38.1306C330.857 38.5976 329.214 39.0565 327.55 39.5073C325.886 39.9582 324.202 40.4008 322.497 40.8352C320.793 41.2696 319.069 41.6954 317.326 42.1129C315.583 42.5304 313.821 42.9392 312.041 43.3395C305.949 44.7223 299.708 46.0484 293.466 47.3749C272.585 51.8118 251.686 56.2525 236.287 62.8352C229.068 65.9213 223.235 69.4108 220.239 73.1911C219.098 74.631 218.626 76.3993 218.135 78.2385C217.143 81.9583 216.073 85.9682 209.229 88.1366C205.835 89.212 201.314 89.7045 196.638 89.6503C186.38 89.5311 176.154 87.0363 169.371 84.6474C154.83 79.5265 148.785 72.3956 145.41 65.6534C142.28 59.4033 140.002 52.4577 144.623 46.2557C151.149 37.5005 170.158 30.7827 188.772 24.2046C195.713 21.7519 202.598 19.3186 208.761 16.8064C210.178 16.229 211.564 15.6437 212.919 15.0506C214.274 14.4575 215.598 13.8569 216.89 13.2487C218.182 12.6406 219.441 12.0254 220.668 11.403C221.895 10.7807 223.09 10.1515 224.251 9.51564C225.412 8.87972 226.539 8.2375 227.633 7.58895C228.726 6.9403 229.785 6.28565 230.81 5.62499C231.834 4.96432 232.824 4.29811 233.779 3.62636C234.733 2.95451 235.652 2.27746 236.535 1.59523C243.378 -3.76273 247.632 -9.3872 248.268 -15.2044C249.728 -28.5567 230.785 -40.3019 203.636 -49.8479Z" fill="white" fill-opacity="0.12"/>
<path d="M40.3496 14.541C37.7094 2.37578 29.4878 -9.66573 0.169357 -18.0038C0.0510347 -12.1898 0.0312344 -6.37577 0.109956 -0.561775L0.157559 -0.444233C11.7279 7.05401 13.1872 17.6236 14.4891 27.0532C14.8994 30.0249 15.2941 32.8834 15.9846 35.4968C24.8814 69.1665 54.2709 111.745 148.429 130.998L162.569 130.994C156.114 129.449 149.854 127.824 143.789 126.118C69.1469 104.896 47.0421 73.6191 42.2403 42.4925C41.5851 38.2452 41.5538 33.9942 41.5225 29.7445C41.4852 24.672 41.4479 19.6014 40.3496 14.541Z" fill="white" fill-opacity="0.12"/>
<path d="M0.225991 18.8C1.88396 23.3531 2.8353 27.928 3.78697 32.5045C4.76406 37.2032 5.7415 41.9037 7.48444 46.5839C7.87998 47.7216 8.31055 48.8579 8.77616 49.9928C9.24173 51.1277 9.74223 52.261 10.2777 53.3925C10.8131 54.524 11.3833 55.6537 11.9883 56.7816C12.5934 57.9093 13.2332 59.0349 13.9076 60.1585C14.582 61.282 15.291 62.4032 16.0345 63.5221C16.778 64.6409 17.556 65.7572 18.3683 66.8708C19.1806 67.9845 20.0272 69.0954 20.908 70.2035C21.7888 71.3115 22.7036 72.4166 23.6525 73.5186C24.6014 74.6206 25.5842 75.7193 26.6008 76.8148C27.6174 77.9103 28.6677 79.0023 29.7516 80.0908C30.8355 81.1793 31.9529 82.2641 33.1037 83.3452C34.2545 84.4263 35.4384 85.5036 36.6556 86.5769C37.8728 87.6502 39.1229 88.7193 40.406 89.7842C41.689 90.8491 43.0048 91.9098 44.3532 92.966C45.7017 94.0223 47.0825 95.074 48.4957 96.1211C49.909 97.1682 51.3544 98.2105 52.8319 99.248C61.285 105.112 70.5525 110.76 82.6943 115.9C87.1778 117.794 91.8945 119.624 96.8442 121.389C101.794 123.153 106.959 124.847 112.34 126.471C114.187 127.023 116.371 127.595 118.591 128.177C122.152 129.111 125.805 130.068 128.296 131L126.961 130.986C105.699 125.516 86.6473 119.234 71.1128 111.96C62.0787 107.729 54.8711 102.975 48.0518 98.3295C21.8099 80.4516 8.44862 63.5218 0.156442 43.9478L0.149322 43.6397C-0.0581557 41.3813 -0.00517833 39.1114 0.0477194 36.845C0.072042 35.8028 0.0963476 34.7614 0.0953098 33.7222C0.0158042 28.748 0.0593646 23.7739 0.225991 18.8Z" fill="white" fill-opacity="0.12"/>
<path d="M170.679 -49.8929L102.464 -49.8911C103.624 -49.6625 104.781 -49.4317 105.934 -49.1989C134.883 -43.3462 164.691 -35.5695 172.83 -24.1885C184.371 -8.05036 155.464 6.84187 129.71 20.1097C126.292 21.8706 122.929 23.6027 119.724 25.3055C92.7987 39.6099 77.8921 53.0745 90.2706 70.1029C109.977 97.2121 189.332 117.177 257.815 130.998H364.651C363.64 130.694 362.64 130.386 361.652 130.074C360.664 129.762 359.688 129.446 358.724 129.125C357.759 128.806 356.808 128.482 355.869 128.153C354.929 127.826 354.003 127.494 353.088 127.158C352.174 126.822 351.273 126.483 350.385 126.14C349.497 125.797 348.622 125.45 347.76 125.1C346.898 124.751 346.05 124.397 345.215 124.04C344.38 123.683 343.558 123.322 342.751 122.959C341.943 122.595 341.15 122.228 340.371 121.857C339.591 121.486 338.826 121.113 338.075 120.737C337.324 120.36 336.587 119.981 335.865 119.599C335.143 119.216 334.435 118.83 333.742 118.442C333.05 118.054 332.372 117.662 331.709 117.268C331.045 116.874 330.397 116.477 329.765 116.079C329.132 115.679 328.515 115.277 327.912 114.873C327.31 114.468 326.724 114.061 326.152 113.653C325.523 113.195 324.915 112.734 324.327 112.271C323.74 111.807 323.174 111.34 322.629 110.87C322.083 110.402 321.559 109.931 321.057 109.456C320.555 108.982 320.074 108.505 319.614 108.025C319.155 107.547 318.717 107.066 318.302 106.583C317.886 106.1 317.493 105.614 317.121 105.128C316.749 104.64 316.399 104.151 316.072 103.661C315.745 103.17 315.439 102.678 315.156 102.185C314.874 101.691 314.613 101.196 314.375 100.701C314.137 100.204 313.922 99.7074 313.729 99.2093C313.536 98.7111 313.366 98.2121 313.218 97.7124C313.07 97.2126 312.945 96.7122 312.842 96.2112C312.74 95.7102 312.66 95.2089 312.603 94.7071C312.546 94.2053 312.512 93.7034 312.5 93.2013C312.489 92.6992 312.5 92.1971 312.534 91.6951C312.568 91.1931 312.624 90.6914 312.704 90.1899C312.794 89.5549 312.921 88.9207 313.085 88.2873C313.249 87.6538 313.45 87.0217 313.687 86.3908C313.925 85.7598 314.2 85.1306 314.511 84.5032C314.823 83.8757 315.171 83.2504 315.555 82.6274C315.939 82.0043 316.36 81.3838 316.817 80.766C317.273 80.1483 317.766 79.5336 318.295 78.922C318.824 78.3104 319.388 77.7023 319.987 77.0978C320.587 76.4933 321.222 75.8928 321.892 75.2962C332.41 66.014 351.761 59.0843 371.306 52.085C380.853 48.6665 390.446 45.2312 399.078 41.4972C400.965 40.6725 402.806 39.8371 404.603 38.9908C406.399 38.1446 408.148 37.2881 409.851 36.4214C411.554 35.5548 413.209 34.6784 414.817 33.7923C416.424 32.9062 417.983 32.011 419.493 31.1068C421.004 30.2025 422.464 29.2897 423.876 28.3682C425.286 27.4468 426.647 26.5175 427.957 25.5803C429.267 24.6429 430.525 23.6983 431.733 22.7462C432.94 21.7942 434.095 20.8354 435.198 19.8698C459.93 -1.60775 460.944 -28.7868 431.864 -49.8928L414.416 -49.8937C416.719 -47.7543 418.839 -45.5956 420.777 -43.4176C422.714 -41.2395 424.466 -39.0455 426.032 -36.8355C427.598 -34.6256 428.975 -32.403 430.164 -30.1679C431.353 -27.9329 432.352 -25.6887 433.161 -23.4354C439.16 -5.87444 430.966 12.1993 400.953 27.1802C392.748 31.2756 382.888 34.9937 372.638 38.5475C367.906 40.1878 363.324 41.7419 358.884 43.2476C335.004 51.3457 315.252 58.0439 298.729 69.2319C296.92 70.4501 295.208 71.6828 293.593 72.93C291.978 74.1773 290.462 75.4374 289.045 76.7102C287.629 77.9832 286.313 79.2672 285.099 80.5623C283.885 81.8576 282.773 83.1622 281.765 84.4763C280.213 86.4851 279.092 88.848 277.923 91.3118C275.231 96.9874 272.285 103.199 263.226 106.853C262.932 106.972 262.629 107.089 262.318 107.203C262.006 107.316 261.686 107.426 261.357 107.535C261.028 107.644 260.692 107.75 260.346 107.853C260.002 107.956 259.649 108.057 259.289 108.153C258.928 108.251 258.561 108.345 258.187 108.437C257.812 108.527 257.43 108.615 257.042 108.7C256.654 108.785 256.259 108.867 255.859 108.945C255.458 109.023 255.051 109.098 254.639 109.17C254.227 109.242 253.809 109.31 253.387 109.375C252.964 109.439 252.537 109.5 252.105 109.558C251.673 109.615 251.237 109.669 250.796 109.72C250.356 109.77 249.912 109.817 249.465 109.86C249.017 109.904 248.567 109.944 248.113 109.979C247.66 110.014 247.203 110.047 246.745 110.076C246.286 110.103 245.826 110.127 245.364 110.148C244.902 110.169 244.438 110.185 243.973 110.199C225.79 110.73 207.286 105.873 194.318 102.257C192.584 101.769 190.873 101.272 189.187 100.766C187.5 100.259 185.839 99.7446 184.202 99.221C182.566 98.6976 180.956 98.1656 179.371 97.6252C177.787 97.0849 176.229 96.5365 174.697 95.9798C173.166 95.4232 171.662 94.8587 170.186 94.2864C168.709 93.714 167.261 93.1341 165.841 92.5466C164.421 91.959 163.03 91.3642 161.667 90.7622C160.305 90.1602 158.972 89.5512 157.669 88.9352C156.366 88.3192 155.094 87.6965 153.851 87.0672C152.608 86.438 151.397 85.8023 150.216 85.1602C149.035 84.5184 147.886 83.8704 146.768 83.2164C145.651 82.5625 144.565 81.9028 143.511 81.2374C142.457 80.572 141.436 79.9013 140.448 79.2254C139.46 78.5493 138.504 77.8682 137.582 77.1822C136.66 76.4963 135.771 75.8056 134.916 75.1103C134.06 74.415 133.239 73.7154 132.452 73.0115C123.521 65.0047 117.652 55.7174 121.715 47.217C126.759 36.6596 147.2 27.2332 167.997 17.6423C186.205 9.2452 204.687 0.721916 213.35 -8.7972C217.459 -13.3113 219.523 -17.98 218.335 -22.691C215.555 -33.7202 195.735 -42.9159 170.679 -49.8929Z" fill="white" fill-opacity="0.12"/>
</svg>
